<svg width="33" height="36" viewBox="0 0 33 36" fill="none" xmlns="http://www.w3.org/2000/svg">
<path d="M30.7713 5.83154C28.9627 5.21027 27.5139 3.7532 26.8954 1.93387C26.502 0.777008 25.4191 0 24.2001 0H8.49518C7.27652 0 6.19327 0.777008 5.79996 1.93387C5.18143 3.7532 3.7326 5.21027 1.92398 5.83154C0.773163 6.22705 0 7.31332 0 8.53473V12.5077C0 17.6921 1.55347 22.684 4.49258 26.944C7.18176 30.8416 10.8875 33.8917 15.2095 35.7649C15.5712 35.9217 15.9593 36 16.3477 36C16.7357 36 17.1238 35.9217 17.4856 35.7649C21.8076 33.892 25.5133 30.8416 28.2024 26.944C31.1416 22.684 32.6953 17.6918 32.6953 12.5077V8.53473C32.6953 7.31332 31.9221 6.22705 30.7713 5.83154ZM30.5859 12.5077C30.5859 17.262 29.1613 21.8397 26.4661 25.7462C24.0016 29.3184 20.606 32.1136 16.6468 33.8294C16.457 33.9118 16.2386 33.912 16.0483 33.8294C12.0888 32.1136 8.69348 29.3184 6.22897 25.7462C3.53403 21.84 2.10937 17.2623 2.10937 12.5077V8.53473C2.10937 8.21393 2.31042 7.92938 2.60953 7.82666C5.03064 6.99472 6.97 5.04575 7.797 2.61282C7.89944 2.3118 8.17987 2.10938 8.49518 2.10938H24.2001C24.5152 2.10938 24.7959 2.3118 24.8983 2.61282C25.7253 5.04575 27.6647 6.99472 30.0858 7.82666C30.3849 7.92938 30.5859 8.21393 30.5859 8.53473V12.5077Z" fill="black"/>
<path d="M14.8699 24.2051V9.52655H20.909C22.2091 9.52655 23.3205 9.73624 24.2431 10.1556C25.1798 10.575 25.8997 11.1761 26.403 11.959C26.9062 12.7418 27.1579 13.6715 27.1579 14.7479C27.1579 15.8243 26.9062 16.754 26.403 17.5368C25.8997 18.3197 25.1798 18.9208 24.2431 19.3402C23.3205 19.7596 22.2091 19.9693 20.909 19.9693H16.3797L17.5959 18.6901V24.2051H14.8699ZM17.5959 18.9837L16.3797 17.6626H20.7832C21.9855 17.6626 22.8871 17.411 23.4883 16.9077C24.1034 16.3905 24.4109 15.6706 24.4109 14.7479C24.4109 13.8113 24.1034 13.0913 23.4883 12.5881C22.8871 12.0848 21.9855 11.8332 20.7832 11.8332H16.3797L17.5959 10.4911V18.9837Z" fill="black"/>
<path d="M8.17358 24.2051V9.52655H10.8996V24.2051H8.17358Z" fill="black"/>
</svg>
