<svg width="36" height="36" viewBox="0 0 36 36" fill="none" xmlns="http://www.w3.org/2000/svg">
<g clip-path="url(#clip0_478_3004)">
<path d="M31.534 27.3481H30.3222C30.7163 24.142 31.534 17.3493 31.534 16.1856C31.534 13.1081 29.0302 10.6044 25.9527 10.6044C22.8752 10.6044 20.3715 13.1081 20.3715 16.1856C20.3715 17.3493 21.1892 24.142 21.5833 27.3481H20.3715C18.0634 27.3481 16.1855 29.2259 16.1855 31.5341V34.3247C16.1855 35.0953 16.8102 35.72 17.5809 35.72H34.3246C35.0952 35.72 35.7199 35.0953 35.7199 34.3247V31.5341C35.7199 29.2259 33.8421 27.3481 31.534 27.3481ZM23.1621 16.1856C23.1621 14.6469 24.414 13.395 25.9527 13.395C27.4915 13.395 28.7434 14.6469 28.7434 16.1856C28.7434 17.0562 28.0405 23.0503 27.5105 27.3481H24.3949C23.865 23.0503 23.1621 17.0562 23.1621 16.1856ZM32.9293 32.9294H18.9762V31.5341C18.9762 30.7647 19.6021 30.1387 20.3715 30.1387H31.534C32.3034 30.1387 32.9293 30.7647 32.9293 31.5341V32.9294Z" fill="#333333"/>
<path d="M11.9997 32.9294H2.79063V2.79063H24.5575V6.41844C24.5575 7.18907 25.1822 7.81375 25.9528 7.81375C26.7234 7.81375 27.3481 7.18907 27.3481 6.41844V1.39531C27.3481 0.624681 26.7234 0 25.9528 0H1.39531C0.624681 0 0 0.624681 0 1.39531V34.3247C0 35.0953 0.624681 35.72 1.39531 35.72H11.9997C12.7703 35.72 13.395 35.0953 13.395 34.3247C13.395 33.5541 12.7703 32.9294 11.9997 32.9294Z" fill="#333333"/>
<path d="M15.6175 6.82714L12.4182 10.0264L11.3119 8.9201C10.7669 8.37516 9.88348 8.37516 9.33861 8.9201C8.79374 9.46504 8.79367 10.3485 9.33861 10.8934L11.4316 12.9863C11.704 13.2588 12.0611 13.395 12.4182 13.395C12.7753 13.395 13.1324 13.2588 13.4048 12.9863L17.5908 8.80039C18.1357 8.25545 18.1357 7.372 17.5908 6.82714C17.0458 6.28227 16.1624 6.2822 15.6175 6.82714Z" fill="#333333"/>
<path d="M14.7904 18.9763H6.97661C6.20598 18.9763 5.5813 19.6009 5.5813 20.3716C5.5813 21.1422 6.20598 21.7669 6.97661 21.7669H14.7904C15.561 21.7669 16.1857 21.1422 16.1857 20.3716C16.1857 19.6009 15.561 18.9763 14.7904 18.9763Z" fill="#333333"/>
<path d="M11.9997 24.5575H6.97661C6.20598 24.5575 5.5813 25.1822 5.5813 25.9528C5.5813 26.7234 6.20598 27.3481 6.97661 27.3481H11.9997C12.7704 27.3481 13.395 26.7234 13.395 25.9528C13.395 25.1822 12.7704 24.5575 11.9997 24.5575Z" fill="#333333"/>
</g>
<defs>
<clipPath id="clip0_478_3004">
<rect width="35.72" height="35.72" fill="white"/>
</clipPath>
</defs>
</svg>
