<svg width="36" height="37" viewBox="0 0 36 37" fill="none" xmlns="http://www.w3.org/2000/svg">
<path d="M17.8616 0.315308C7.99934 0.315308 0 8.31019 0 18.1724C0 28.0394 7.99964 36.034 17.8616 36.034C27.7285 36.034 35.7234 28.0394 35.7234 18.1724C35.7231 8.31019 27.7285 0.315308 17.8616 0.315308ZM33.6922 19.6789C32.9462 20.2902 32.7585 21.3538 33.2541 22.1768C33.4418 22.4897 33.5283 22.8315 33.5283 23.1685C33.5283 23.9627 33.0423 24.7232 32.2288 25.0022H32.224C31.3145 25.3199 30.7752 26.2535 30.9581 27.197V27.2018C31.1892 28.41 30.2553 29.5218 29.028 29.5025H29.0233C28.0608 29.4882 27.2327 30.1812 27.0786 31.1342C26.9245 32.1066 26.0822 32.7707 25.1679 32.7707C24.9418 32.7707 24.7059 32.7273 24.4796 32.6408H24.4748C23.5748 32.2942 22.5641 32.6649 22.0923 33.5072C21.7312 34.1524 21.0718 34.5036 20.3981 34.5036C19.9505 34.5036 19.5028 34.3496 19.1322 34.0271C18.7664 33.7095 18.314 33.5554 17.8616 33.5554C17.4092 33.5554 16.9567 33.7095 16.5909 34.0271C16.225 34.3496 15.7726 34.5036 15.3298 34.5036C14.6558 34.5036 13.9916 34.1524 13.6308 33.5072C13.2795 32.8766 12.6248 32.5108 11.9413 32.5108C11.7102 32.5108 11.4743 32.5542 11.2483 32.6408H11.2435C10.0981 33.0789 8.83694 32.3472 8.64449 31.1342C8.49042 30.1907 7.68198 29.5025 6.72868 29.5025H6.66622C5.45802 29.5025 4.53387 28.4002 4.76498 27.2018V27.197C4.94791 26.2535 4.40865 25.3199 3.49908 25.0022C2.68082 24.7229 2.19481 23.9627 2.19481 23.1685C2.19481 22.8315 2.28136 22.4897 2.46905 22.1768C2.65673 21.8687 2.74328 21.5222 2.74328 21.1855C2.74328 20.6176 2.4979 20.0591 2.03092 19.6789H2.02616C1.07316 18.899 1.07316 17.4455 2.02616 16.6706H2.03092C2.7769 16.0594 2.96458 14.9957 2.46905 14.1727C2.28136 13.8598 2.19481 13.5181 2.19481 13.1811C2.19481 12.3869 2.68082 11.6263 3.49908 11.3473C4.28849 11.0731 4.7986 10.3319 4.7986 9.52315C4.7986 9.39793 4.78908 9.27776 4.76498 9.15254V9.14778C4.53387 7.93958 5.47259 6.82775 6.69983 6.84708H6.72868C7.67692 6.84708 8.49042 6.15405 8.64449 5.21533C8.79857 4.243 9.64091 3.57881 10.56 3.57881C10.7861 3.57881 11.0172 3.62224 11.2483 3.7088C11.4746 3.79535 11.7102 3.83878 11.9413 3.83878C12.6248 3.83878 13.2795 3.47293 13.6308 2.84236C13.9919 2.19751 14.656 1.84593 15.3298 1.84593C15.7726 1.84593 16.225 2 16.5909 2.32243C16.9567 2.63533 17.4092 2.79417 17.8616 2.79417C18.314 2.79417 18.7664 2.63533 19.1322 2.32243C19.5028 2 19.9505 1.84593 20.3981 1.84593C21.0718 1.84593 21.7312 2.19721 22.0923 2.84236C22.4436 3.47293 23.0983 3.83878 23.7818 3.83878C24.0129 3.83878 24.2488 3.79535 24.4748 3.7088H24.4796C25.625 3.27067 26.8862 4.00237 27.0786 5.21533C27.2327 6.15881 28.0411 6.84708 28.9941 6.84708H29.0278C30.255 6.82775 31.1889 7.93958 30.9578 9.14778V9.15254C30.7749 10.096 31.3189 11.0297 32.2285 11.3473C33.042 11.6263 33.528 12.3869 33.528 13.1811C33.528 13.5181 33.4415 13.8598 33.2538 14.1727C33.0661 14.4809 32.9795 14.8274 32.9795 15.1641C32.9795 15.7319 33.2249 16.2902 33.6919 16.6706H33.6967C34.6497 17.4455 34.6497 18.899 33.6967 19.6789H33.6922Z" fill="#333333"/>
<path d="M17.8956 32.5006C17.7877 32.5012 17.6776 32.5 17.5685 32.4976C17.4394 32.4947 17.3373 32.3879 17.34 32.2588C17.343 32.1297 17.4566 32.0304 17.5789 32.0304C17.6842 32.0327 17.79 32.0327 17.8953 32.0333C17.9944 32.0333 18.0928 32.0321 18.191 32.0298C18.3225 32.0289 18.4272 32.1282 18.4304 32.2576C18.4334 32.3867 18.3314 32.4938 18.2026 32.497C18.1006 32.4994 17.9983 32.5006 17.8956 32.5006ZM16.0221 32.3813C16.0119 32.3813 16.0018 32.3807 15.9914 32.3792C15.7811 32.3519 15.5726 32.3201 15.3653 32.2835C15.2383 32.2612 15.1535 32.1398 15.1758 32.0131C15.1985 31.8858 15.3189 31.8016 15.4465 31.8236C15.6467 31.859 15.8487 31.8897 16.0518 31.9164C16.18 31.9331 16.2701 32.0503 16.2532 32.1785C16.238 32.2954 16.1375 32.3813 16.0221 32.3813ZM19.7478 32.3757C19.6324 32.3757 19.5322 32.2906 19.5167 32.1731C19.4994 32.0452 19.5893 31.9277 19.7172 31.9105C19.92 31.8831 20.122 31.8516 20.3224 31.8156C20.4495 31.7927 20.5711 31.8775 20.5937 32.0042C20.6166 32.1315 20.5318 32.2528 20.4048 32.2754C20.1978 32.3126 19.9893 32.3453 19.7793 32.3733C19.7686 32.3751 19.7579 32.3757 19.7478 32.3757ZM13.8906 31.9331C13.8689 31.9331 13.8469 31.9301 13.8249 31.9236C13.6217 31.8641 13.4207 31.8001 13.2214 31.7323C13.0991 31.6907 13.034 31.5577 13.0756 31.4358C13.1173 31.3138 13.2502 31.2481 13.3722 31.29C13.5649 31.3561 13.7597 31.4179 13.956 31.4753C14.0798 31.5116 14.1509 31.641 14.1146 31.7653C14.0848 31.8671 13.9917 31.9331 13.8906 31.9331ZM21.8778 31.9203C21.7769 31.9203 21.6841 31.8546 21.6541 31.7534C21.6172 31.6297 21.6877 31.4997 21.8114 31.4628C22.0077 31.4045 22.2023 31.3421 22.3947 31.2752C22.5167 31.2323 22.6496 31.2975 22.6918 31.4197C22.7341 31.5414 22.6695 31.6746 22.5476 31.7169C22.3486 31.7856 22.1475 31.8504 21.9447 31.9108C21.9224 31.9173 21.8998 31.9203 21.8778 31.9203ZM11.8537 31.1595C11.8201 31.1595 11.7862 31.1526 11.7541 31.1371C11.5625 31.0467 11.3734 30.9518 11.1866 30.8534C11.0724 30.793 11.0289 30.6517 11.089 30.5375C11.1491 30.4236 11.2913 30.3796 11.4046 30.4402C11.5855 30.5357 11.7681 30.627 11.9534 30.7145C12.0703 30.7695 12.1202 30.909 12.0649 31.0256C12.0254 31.1098 11.9412 31.1595 11.8537 31.1595ZM23.9117 31.1398C23.8245 31.1398 23.7406 31.0907 23.7008 31.0069C23.6451 30.8903 23.6945 30.7511 23.8108 30.6954C23.9952 30.6074 24.1776 30.5161 24.3572 30.4203C24.4714 30.3599 24.6127 30.4034 24.6731 30.517C24.7335 30.6309 24.6903 30.7722 24.5764 30.8329C24.3905 30.9313 24.2026 31.0262 24.0122 31.1169C23.9795 31.1327 23.9453 31.1398 23.9117 31.1398ZM9.96083 30.0791C9.91562 30.0791 9.86982 30.0661 9.82967 30.0387C9.65477 29.92 9.48255 29.7975 9.31331 29.6714C9.2098 29.594 9.18868 29.4477 9.26572 29.3442C9.34275 29.2404 9.48939 29.2198 9.5926 29.2963C9.75619 29.4185 9.92306 29.5369 10.0923 29.652C10.1991 29.7243 10.2267 29.8698 10.1545 29.9762C10.109 30.0432 10.0355 30.0791 9.96083 30.0791ZM25.7986 30.0554C25.724 30.0554 25.6508 30.0197 25.6056 29.9533C25.5327 29.8468 25.5601 29.7014 25.6668 29.6285C25.8355 29.5131 26.0015 29.3944 26.1645 29.2722C26.268 29.1949 26.414 29.2157 26.4916 29.3186C26.569 29.4221 26.5482 29.5684 26.4446 29.6458C26.276 29.7725 26.1047 29.8953 25.9304 30.0143C25.8899 30.0423 25.8441 30.0554 25.7986 30.0554ZM8.2571 28.7204C8.19999 28.7204 8.14288 28.6999 8.09797 28.6577C7.9433 28.5137 7.7919 28.3665 7.64408 28.2154C7.55365 28.1232 7.55514 27.9754 7.64735 27.8849C7.73955 27.7951 7.88738 27.7963 7.9778 27.8885C8.12087 28.0343 8.26691 28.1767 8.41653 28.3156C8.51082 28.4037 8.51617 28.5515 8.42813 28.6458C8.38232 28.6955 8.31956 28.7204 8.2571 28.7204ZM27.4967 28.6925C27.4345 28.6925 27.3724 28.6678 27.3263 28.6187C27.2379 28.5247 27.2427 28.3769 27.3367 28.2886C27.4857 28.1488 27.6317 28.0057 27.7745 27.8597C27.8646 27.7675 28.0125 27.766 28.105 27.8561C28.1972 27.9462 28.1987 28.0943 28.1085 28.1865C27.961 28.3373 27.8105 28.4855 27.6564 28.6294C27.6115 28.6717 27.5541 28.6925 27.4967 28.6925ZM6.78269 27.1178C6.71339 27.1178 6.64497 27.0872 6.59887 27.0286C6.46859 26.8629 6.34159 26.6943 6.21845 26.5227C6.14319 26.4177 6.16729 26.2719 6.27198 26.1964C6.37698 26.1217 6.52302 26.1452 6.59828 26.2499C6.71755 26.4159 6.84009 26.5792 6.96621 26.7395C7.04622 26.8412 7.02838 26.9882 6.92695 27.0679C6.88412 27.1015 6.83296 27.1178 6.78269 27.1178ZM28.9669 27.0854C28.9167 27.0854 28.8661 27.0694 28.8233 27.036C28.7216 26.9566 28.7034 26.8097 28.7828 26.708C28.9086 26.5465 29.0312 26.3829 29.1502 26.2163C29.2254 26.1113 29.3712 26.0866 29.4762 26.1619C29.5812 26.2368 29.6055 26.3829 29.5306 26.4879C29.4077 26.6598 29.2813 26.829 29.1514 26.9953C29.1052 27.0545 29.0365 27.0854 28.9669 27.0854ZM5.57151 25.3085C5.48972 25.3085 5.4106 25.2657 5.36777 25.1892C5.26456 25.006 5.16551 24.8201 5.07003 24.6318C5.01173 24.5164 5.05813 24.376 5.17324 24.3177C5.28835 24.2591 5.42874 24.3055 5.48734 24.4207C5.57925 24.603 5.67562 24.7826 5.77526 24.9605C5.83861 25.0726 5.79846 25.2151 5.68603 25.2785C5.64974 25.2987 5.61048 25.3085 5.57151 25.3085ZM30.1734 25.2707C30.1347 25.2707 30.0957 25.2612 30.0594 25.241C29.9467 25.1782 29.9066 25.0358 29.9693 24.923C30.069 24.7449 30.1647 24.564 30.2566 24.3811C30.3146 24.2654 30.455 24.2187 30.5704 24.277C30.6858 24.3347 30.7322 24.4751 30.6745 24.5902C30.5797 24.7797 30.4806 24.9665 30.3777 25.1509C30.3346 25.2276 30.2552 25.2707 30.1734 25.2707ZM4.65451 23.3338C4.55963 23.3338 4.47069 23.2758 4.43559 23.1818C4.36183 22.9846 4.29252 22.785 4.22739 22.5837C4.18783 22.4608 4.25534 22.3291 4.37789 22.2895C4.50133 22.2505 4.6325 22.3175 4.67206 22.44C4.73482 22.6348 4.80204 22.8276 4.87313 23.0185C4.91834 23.1393 4.85677 23.2737 4.73601 23.3192C4.70924 23.3293 4.68158 23.3338 4.65451 23.3338ZM31.0856 23.2913C31.0585 23.2913 31.0315 23.2868 31.0047 23.277C30.8836 23.2324 30.8218 23.0979 30.8664 22.9766C30.9372 22.785 31.0038 22.5914 31.0663 22.3957C31.1052 22.2731 31.2361 22.2059 31.3598 22.2443C31.4827 22.2835 31.5505 22.4153 31.5112 22.5382C31.4467 22.7398 31.3777 22.94 31.3045 23.1384C31.2697 23.233 31.1805 23.2913 31.0856 23.2913ZM4.05368 21.2404C3.94511 21.2404 3.84785 21.164 3.82495 21.0536C3.78301 20.8475 3.74524 20.6396 3.71222 20.4302C3.692 20.3026 3.77914 20.183 3.90645 20.1628C4.03316 20.1438 4.15362 20.2297 4.17384 20.3573C4.20597 20.5599 4.24226 20.761 4.28301 20.9599C4.30888 21.0867 4.22709 21.2101 4.10068 21.2357C4.08521 21.2386 4.06944 21.2404 4.05368 21.2404ZM31.6796 21.1931C31.6644 21.1931 31.649 21.1917 31.6335 21.1887C31.5068 21.1634 31.4247 21.0402 31.4503 20.9135C31.4901 20.714 31.5258 20.5132 31.5571 20.3106C31.5767 20.1827 31.6968 20.0953 31.8236 20.1152C31.9512 20.1348 32.0386 20.2541 32.019 20.3817C31.9868 20.5911 31.9497 20.799 31.9083 21.0055C31.886 21.1164 31.7885 21.1931 31.6796 21.1931ZM3.78509 19.0789C3.66106 19.0789 3.55755 18.9817 3.5519 18.8562C3.54208 18.6462 3.53673 18.4353 3.53613 18.2229C3.53584 18.0938 3.63994 17.9888 3.76933 17.9885H3.76992C3.89872 17.9885 4.00341 18.0926 4.00371 18.2217C4.00431 18.4266 4.00936 18.631 4.01888 18.8341C4.02512 18.9632 3.92548 19.0724 3.79639 19.0783C3.79253 19.0789 3.78866 19.0789 3.78509 19.0789ZM31.941 19.031C31.9378 19.031 31.9345 19.031 31.9309 19.0307C31.8021 19.0254 31.7019 18.9162 31.7076 18.7874C31.7162 18.5843 31.7206 18.38 31.7206 18.1747C31.7206 18.0456 31.8253 17.9409 31.9544 17.9409C32.0835 17.9409 32.1882 18.0456 32.1882 18.1747C32.1882 18.3868 32.1838 18.5977 32.1745 18.8077C32.1689 18.9329 32.0654 19.031 31.941 19.031ZM31.936 17.6866C31.8123 17.6866 31.709 17.5896 31.7028 17.4647C31.6924 17.2598 31.6778 17.0557 31.6585 16.8535C31.6463 16.725 31.7406 16.6111 31.8691 16.5989C31.9949 16.5879 32.1115 16.681 32.1237 16.8098C32.1433 17.0189 32.1588 17.2295 32.1695 17.4409C32.176 17.57 32.0767 17.6798 31.9479 17.686C31.944 17.6866 31.9401 17.6866 31.936 17.6866ZM3.84934 16.9017C3.84101 16.9017 3.83268 16.9014 3.82436 16.9005C3.69616 16.8868 3.60306 16.7714 3.61674 16.6435C3.63905 16.4329 3.66612 16.2232 3.69735 16.0153C3.71668 15.888 3.83506 15.7985 3.96326 15.8193C4.09086 15.8386 4.17861 15.9573 4.15957 16.0852C4.12923 16.2866 4.10306 16.4888 4.08134 16.6929C4.06855 16.8127 3.96713 16.9017 3.84934 16.9017ZM31.6591 15.5269C31.5505 15.5269 31.4535 15.4508 31.4306 15.3404C31.389 15.1399 31.3432 14.941 31.2929 14.7441C31.2611 14.6191 31.3366 14.4918 31.4616 14.46C31.5871 14.4285 31.7138 14.5037 31.7456 14.6286C31.7977 14.8327 31.8453 15.0385 31.8881 15.2464C31.9143 15.3725 31.8328 15.4963 31.7067 15.5224C31.6906 15.5254 31.6745 15.5269 31.6591 15.5269ZM4.24642 14.7604C4.22649 14.7604 4.20626 14.758 4.18604 14.7524C4.06141 14.7191 3.98735 14.5912 4.02066 14.4662C4.07539 14.2619 4.13428 14.059 4.19764 13.858C4.2366 13.7348 4.36807 13.6655 4.49092 13.7057C4.61406 13.7443 4.68217 13.8755 4.6435 13.9987C4.58223 14.1932 4.52512 14.3889 4.47218 14.5867C4.44422 14.6917 4.34963 14.7604 4.24642 14.7604ZM31.0514 13.4347C30.9568 13.4347 30.8679 13.377 30.8325 13.2836C30.7608 13.0927 30.6844 12.9035 30.6043 12.717C30.5535 12.5983 30.6082 12.4612 30.7269 12.41C30.845 12.3598 30.9827 12.4142 31.0339 12.5326C31.1168 12.7259 31.1957 12.9207 31.27 13.1185C31.3152 13.2393 31.2543 13.374 31.1335 13.4198C31.1067 13.43 31.0788 13.4347 31.0514 13.4347ZM4.97069 12.706C4.93916 12.706 4.90703 12.6997 4.8761 12.6858C4.75802 12.6334 4.70478 12.4957 4.75713 12.3776C4.84279 12.1843 4.93291 11.9927 5.0266 11.8036C5.08401 11.6879 5.2247 11.6414 5.33951 11.698C5.45522 11.7551 5.50251 11.8955 5.4451 12.0109C5.35438 12.1941 5.26724 12.3794 5.18395 12.5668C5.14588 12.6542 5.06021 12.706 4.97069 12.706ZM30.1278 11.4651C30.0463 11.4651 29.9675 11.4225 29.9244 11.3467C29.8236 11.1688 29.7192 10.9936 29.6109 10.8211C29.5425 10.7117 29.5755 10.5674 29.685 10.499C29.7941 10.4312 29.9384 10.4639 30.0071 10.5731C30.1189 10.7515 30.2269 10.9327 30.331 11.1162C30.3947 11.2286 30.3551 11.3711 30.243 11.4347C30.2067 11.4553 30.1671 11.4651 30.1278 11.4651ZM6.00548 10.7875C5.96205 10.7875 5.91833 10.7756 5.87937 10.7503C5.7708 10.6804 5.73957 10.5359 5.80917 10.4273C5.92368 10.2497 6.04207 10.0745 6.16402 9.90202C6.23867 9.79703 6.38442 9.77205 6.48971 9.84641C6.59501 9.92107 6.61999 10.0671 6.54533 10.1721C6.42755 10.339 6.31303 10.5079 6.20239 10.6801C6.15747 10.7497 6.08252 10.7875 6.00548 10.7875ZM28.911 9.66021C28.842 9.66021 28.7739 9.62987 28.7275 9.57127C28.6008 9.41125 28.4705 9.2539 28.337 9.09983C28.2525 9.00257 28.2629 8.85504 28.3605 8.77027C28.458 8.68579 28.6056 8.69621 28.69 8.79377C28.828 8.9532 28.9628 9.1153 29.0939 9.28156C29.174 9.38269 29.1567 9.52963 29.0556 9.60964C29.0127 9.64355 28.9619 9.66021 28.911 9.66021ZM7.32314 9.05224C7.26782 9.05224 7.21249 9.03291 7.16788 8.99335C7.07151 8.90768 7.06288 8.76015 7.14854 8.66348C7.28893 8.50584 7.4323 8.35147 7.57923 8.19948C7.66906 8.10638 7.81689 8.10489 7.90969 8.19412C8.00249 8.28395 8.00487 8.43208 7.91475 8.52459C7.77257 8.67152 7.63337 8.82113 7.49773 8.97401C7.45163 9.02577 7.38768 9.05224 7.32314 9.05224ZM27.4307 8.06266C27.3739 8.06266 27.3167 8.04183 27.2721 8.00049C27.1219 7.86158 26.969 7.72596 26.8132 7.5939C26.7147 7.51061 26.7025 7.36337 26.7858 7.26462C26.8685 7.16587 27.0163 7.15368 27.1151 7.23727C27.2763 7.37349 27.4345 7.51388 27.5895 7.65695C27.6844 7.74469 27.69 7.89253 27.6023 7.98741C27.5559 8.03738 27.4934 8.06266 27.4307 8.06266ZM8.89094 7.53946C8.82372 7.53946 8.7568 7.51061 8.71069 7.45469C8.6283 7.35505 8.64258 7.20782 8.74192 7.12573C8.90433 6.99158 9.0697 6.86071 9.23805 6.7337C9.34067 6.65547 9.48731 6.676 9.56524 6.77862C9.64317 6.88153 9.62295 7.02816 9.52003 7.10609C9.35733 7.22953 9.19671 7.35624 9.03936 7.48622C8.99594 7.52192 8.94329 7.53946 8.89094 7.53946ZM25.7222 6.7105C25.6773 6.7105 25.6318 6.69771 25.5916 6.67064C25.4224 6.55613 25.2501 6.44607 25.0758 6.33959C24.9658 6.27237 24.931 6.12841 24.9982 6.01836C25.0654 5.90831 25.2094 5.8735 25.3194 5.94042C25.5 6.05048 25.6778 6.16499 25.8533 6.28308C25.9604 6.35535 25.9887 6.5005 25.9164 6.60728C25.8712 6.67421 25.7974 6.7105 25.7222 6.7105ZM10.6714 6.28605C10.5917 6.28605 10.5141 6.2453 10.4703 6.17184C10.4043 6.06089 10.4409 5.91753 10.5518 5.85149C10.7327 5.74382 10.9162 5.64001 11.1024 5.54067C11.2154 5.47969 11.3576 5.52253 11.4186 5.63615C11.4796 5.75007 11.4367 5.89165 11.3228 5.95262C11.1432 6.04899 10.9656 6.14923 10.7904 6.25333C10.7532 6.27534 10.7119 6.28605 10.6714 6.28605ZM23.826 5.63674C23.7927 5.63674 23.7591 5.6299 23.7269 5.61444C23.5422 5.52758 23.3551 5.44519 23.166 5.36697C23.0467 5.31729 22.9899 5.18077 23.0393 5.06149C23.0886 4.94222 23.2255 4.8866 23.3444 4.93478C23.5404 5.01599 23.7341 5.10165 23.9256 5.19118C24.0422 5.24591 24.0928 5.38511 24.0381 5.50171C23.9979 5.58707 23.9137 5.63674 23.826 5.63674ZM12.6223 5.32205C12.5298 5.32205 12.4418 5.26672 12.4055 5.17511C12.3576 5.05554 12.4159 4.91961 12.5355 4.87143C12.7309 4.7932 12.9287 4.71884 13.1283 4.64895C13.2505 4.60671 13.3835 4.67095 13.426 4.79231C13.4685 4.91426 13.4043 5.04752 13.2826 5.09005C13.0893 5.15757 12.8984 5.22925 12.7092 5.3051C12.6806 5.3167 12.6512 5.32205 12.6223 5.32205ZM21.7859 4.86965C21.7641 4.86965 21.7424 4.86667 21.7207 4.86042C21.5253 4.80391 21.3278 4.75156 21.1288 4.70307C21.0033 4.67303 20.9263 4.54662 20.9566 4.4211C20.9869 4.29618 21.1133 4.21854 21.2386 4.24918C21.4444 4.29885 21.6484 4.35299 21.8507 4.41129C21.9747 4.44728 22.0461 4.57666 22.0101 4.70069C21.9804 4.80331 21.887 4.86965 21.7859 4.86965ZM14.7008 4.67155C14.5944 4.67155 14.498 4.59808 14.4733 4.49011C14.4444 4.3643 14.523 4.23877 14.6488 4.20992C14.8537 4.16322 15.0607 4.12039 15.2689 4.08202C15.3948 4.06001 15.5176 4.143 15.5408 4.27C15.564 4.39701 15.4798 4.51866 15.3528 4.54186C15.1515 4.57845 14.9513 4.61979 14.7529 4.6653C14.7356 4.66976 14.7181 4.67155 14.7008 4.67155ZM19.6529 4.42883C19.6431 4.42883 19.6333 4.42824 19.6232 4.42705C19.4215 4.40118 19.2184 4.37976 19.014 4.36311C18.8855 4.3527 18.7897 4.23996 18.8002 4.11117C18.8109 3.98268 18.9233 3.88453 19.0524 3.89761C19.2636 3.91486 19.4739 3.93687 19.6821 3.96334C19.8103 3.9797 19.9007 4.09659 19.8843 4.22479C19.8694 4.34287 19.7689 4.42883 19.6529 4.42883ZM16.8549 4.35121C16.7332 4.35121 16.6309 4.25721 16.622 4.13407C16.6128 4.00528 16.7097 3.89374 16.8385 3.88452C17.0482 3.86965 17.2591 3.85954 17.4712 3.85389C17.5899 3.853 17.7077 3.95234 17.7106 4.08142C17.7142 4.21051 17.6122 4.31789 17.4831 4.32116C17.2782 4.32622 17.0741 4.33633 16.8716 4.35061C16.8662 4.3509 16.8605 4.35121 16.8549 4.35121Z" fill="#333333"/>
<path d="M24.0107 26.0882C23.8604 26.0882 23.719 26.0219 23.5865 25.8894C23.4627 25.7568 23.4009 25.6198 23.4009 25.4784C23.4009 25.4254 23.5202 25.1116 23.7588 24.5371L26.3704 16.9675C26.4588 16.72 26.556 16.3753 26.6621 15.9334C26.6974 15.792 26.7902 15.7213 26.9404 15.7213C27.0465 15.7213 27.1481 15.7611 27.2454 15.8406C27.3426 15.9113 27.4221 15.9909 27.484 16.0792C27.5547 16.1676 27.59 16.256 27.59 16.3444C27.1747 17.4933 26.1804 20.3347 24.6072 24.8686C24.5012 25.1779 24.3995 25.5093 24.3023 25.8628C24.2581 26.0131 24.1609 26.0882 24.0107 26.0882ZM27.0598 25.9954C26.5472 25.9954 26.1715 25.77 25.9329 25.3193C25.7031 24.8597 25.5882 24.2808 25.5882 23.5827C25.5882 22.7607 25.7562 22.12 26.092 21.6604C26.1627 21.5543 26.2511 21.5013 26.3571 21.5013C26.419 21.5013 26.4499 21.4925 26.4499 21.4748L26.4367 21.4615C26.5958 21.2494 26.8123 21.1434 27.0863 21.1434C27.6961 21.1434 28.1115 21.5543 28.3324 22.3763C28.4296 22.7386 28.4782 23.1408 28.4782 23.5827C28.4782 23.998 28.4296 24.3869 28.3324 24.7493C28.2352 25.1116 28.0805 25.4077 27.8684 25.6375C27.6563 25.8761 27.3868 25.9954 27.0598 25.9954ZM27.0332 25.1072C27.4133 25.1072 27.6033 24.5813 27.6033 23.5296C27.6033 23.1142 27.5547 22.7607 27.4575 22.4691C27.3602 22.1774 27.2277 22.0316 27.0598 22.0316C26.936 22.0316 26.8079 22.1509 26.6753 22.3895C26.5516 22.6193 26.4897 23.017 26.4897 23.5827C26.4897 23.8566 26.5074 24.1129 26.5427 24.3516C26.5869 24.5813 26.6488 24.7669 26.7283 24.9083C26.8167 25.0409 26.9184 25.1072 27.0332 25.1072ZM24.0372 20.812C23.5334 20.812 23.1622 20.5866 22.9236 20.1359C22.685 19.6763 22.5657 19.0974 22.5657 18.3992C22.5657 17.5773 22.7336 16.9365 23.0694 16.477C23.1313 16.3709 23.2153 16.3179 23.3213 16.3179C23.3832 16.3179 23.4141 16.309 23.4141 16.2914V16.2781C23.5644 16.066 23.7809 15.9599 24.0637 15.9599C24.3819 15.9599 24.6426 16.0748 24.8459 16.3046C25.0491 16.5256 25.1994 16.8216 25.2966 17.1928C25.4026 17.5552 25.4557 17.9573 25.4557 18.3992C25.4557 18.8146 25.4071 19.2035 25.3098 19.5658C25.2126 19.9282 25.058 20.2287 24.8459 20.4673C24.6426 20.6971 24.373 20.812 24.0372 20.812ZM24.0239 19.9237C24.3863 19.9237 24.5675 19.3979 24.5675 18.3462C24.5675 17.9308 24.5189 17.5773 24.4216 17.2856C24.3333 16.994 24.2051 16.8482 24.0372 16.8482C23.9223 16.8482 23.7941 16.9719 23.6527 17.2193C23.5202 17.4668 23.4539 17.8601 23.4539 18.3992C23.4539 19.4156 23.6439 19.9237 24.0239 19.9237Z" fill="#333333"/>
<path d="M17.6533 25.7834C16.8579 25.7834 16.1508 25.5934 15.5322 25.2134C14.9223 24.8333 14.4407 24.2854 14.0872 23.5695C13.7336 22.8536 13.5569 21.9831 13.5569 20.9579C13.5569 19.9327 13.7336 19.0622 14.0872 18.3463C14.4407 17.6304 14.9223 17.0825 15.5322 16.7024C16.1508 16.3224 16.8579 16.1324 17.6533 16.1324C18.4398 16.1324 19.138 16.3224 19.7479 16.7024C20.3665 17.0825 20.8526 17.6304 21.2061 18.3463C21.5596 19.0622 21.7364 19.9327 21.7364 20.9579C21.7364 21.9831 21.5596 22.8536 21.2061 23.5695C20.8526 24.2854 20.3665 24.8333 19.7479 25.2134C19.138 25.5934 18.4398 25.7834 17.6533 25.7834ZM17.6533 23.6358C17.9361 23.6358 18.1835 23.5474 18.3957 23.3706C18.6166 23.1939 18.7889 22.9111 18.9127 22.5222C19.0364 22.1245 19.0983 21.6031 19.0983 20.9579C19.0983 20.3039 19.0364 19.7824 18.9127 19.3936C18.7889 19.0047 18.6166 18.7219 18.3957 18.5451C18.1835 18.3684 17.9361 18.28 17.6533 18.28C17.3705 18.28 17.1186 18.3684 16.8976 18.5451C16.6855 18.7219 16.5132 19.0047 16.3806 19.3936C16.2569 19.7824 16.195 20.3039 16.195 20.9579C16.195 21.6031 16.2569 22.1245 16.3806 22.5222C16.5132 22.9111 16.6855 23.1939 16.8976 23.3706C17.1186 23.5474 17.3705 23.6358 17.6533 23.6358Z" fill="#333333"/>
<path d="M9.53614 25.5978V17.2592L10.663 18.3462H7.81274V16.3179H12.161V25.5978H9.53614Z" fill="#333333"/>
<path d="M20.1538 13.244V9.57019H21.8332C22.1691 9.57019 22.4578 9.62442 22.6992 9.73289C22.9441 9.84135 23.1331 9.9988 23.266 10.2052C23.399 10.4082 23.4654 10.6496 23.4654 10.9295C23.4654 11.2059 23.399 11.4456 23.266 11.6485C23.1331 11.8514 22.9441 12.0089 22.6992 12.1208C22.4578 12.2293 22.1691 12.2835 21.8332 12.2835H20.7311L21.193 11.8322V13.244H20.1538ZM21.193 11.9424L20.7311 11.4648H21.7703C21.9872 11.4648 22.1481 11.4176 22.2531 11.3231C22.3616 11.2286 22.4158 11.0974 22.4158 10.9295C22.4158 10.758 22.3616 10.6251 22.2531 10.5306C22.1481 10.4361 21.9872 10.3889 21.7703 10.3889H20.7311L21.193 9.91133V11.9424Z" fill="#333333"/>
<path d="M17.5679 13.3174C17.274 13.3174 17.0029 13.2701 16.7545 13.1757C16.506 13.0812 16.2891 12.9482 16.1037 12.7768C15.9217 12.6019 15.78 12.3989 15.6786 12.168C15.5771 11.9371 15.5264 11.6834 15.5264 11.407C15.5264 11.1306 15.5771 10.8769 15.6786 10.646C15.78 10.4151 15.9217 10.2139 16.1037 10.0425C16.2891 9.86752 16.506 9.73281 16.7545 9.63835C17.0029 9.54388 17.274 9.49664 17.5679 9.49664C17.8653 9.49664 18.1365 9.54388 18.3814 9.63835C18.6298 9.73281 18.845 9.86752 19.0269 10.0425C19.2089 10.2139 19.3506 10.4151 19.452 10.646C19.557 10.8769 19.6095 11.1306 19.6095 11.407C19.6095 11.6834 19.557 11.9388 19.452 12.1732C19.3506 12.4042 19.2089 12.6053 19.0269 12.7768C18.845 12.9482 18.6298 13.0812 18.3814 13.1757C18.1365 13.2701 17.8653 13.3174 17.5679 13.3174ZM17.5679 12.4566C17.7079 12.4566 17.8373 12.4322 17.9563 12.3832C18.0788 12.3342 18.1837 12.2642 18.2712 12.1732C18.3622 12.0788 18.4321 11.9668 18.4811 11.8374C18.5336 11.7079 18.5598 11.5644 18.5598 11.407C18.5598 11.2461 18.5336 11.1026 18.4811 10.9766C18.4321 10.8472 18.3622 10.737 18.2712 10.646C18.1837 10.5515 18.0788 10.4798 17.9563 10.4308C17.8373 10.3818 17.7079 10.3574 17.5679 10.3574C17.428 10.3574 17.2968 10.3818 17.1743 10.4308C17.0554 10.4798 16.9504 10.5515 16.8594 10.646C16.7719 10.737 16.702 10.8472 16.6495 10.9766C16.6005 11.1026 16.576 11.2461 16.576 11.407C16.576 11.5644 16.6005 11.7079 16.6495 11.8374C16.702 11.9668 16.7719 12.0788 16.8594 12.1732C16.9504 12.2642 17.0554 12.3342 17.1743 12.3832C17.2968 12.4322 17.428 12.4566 17.5679 12.4566Z" fill="#333333"/>
<path d="M13.2167 13.2441V10.3943H12.0884V9.57037H15.379V10.3943H14.2559V13.2441H13.2167Z" fill="#333333"/>
<path d="M9.27456 10.4497L9.56367 11.0148C9.58658 11.0594 9.62911 11.0904 9.67848 11.0981L10.3055 11.1987C10.4316 11.2189 10.4819 11.3735 10.3917 11.464L9.9435 11.9137C9.90811 11.9491 9.89204 11.9994 9.89978 12.0487L9.99793 12.676C10.0176 12.8022 9.8861 12.8979 9.77218 12.8399L9.20585 12.5526C9.16124 12.53 9.10859 12.53 9.06397 12.5526L8.49765 12.8399C8.38373 12.8976 8.25226 12.8022 8.27189 12.676L8.37005 12.0487C8.37778 11.9994 8.36142 11.9494 8.32632 11.9137L7.87808 11.464C7.78795 11.3735 7.83822 11.2189 7.96434 11.1987L8.59134 11.0981C8.64072 11.0901 8.68325 11.0591 8.70615 11.0148L8.99526 10.4497C9.05386 10.3358 9.21656 10.3358 9.27456 10.4497Z" fill="#333333"/>
<path d="M26.507 10.4497L26.7961 11.0148C26.819 11.0594 26.8615 11.0904 26.9109 11.0981L27.5379 11.1987C27.664 11.2189 27.7143 11.3735 27.6242 11.464L27.1759 11.9137C27.1405 11.9491 27.1245 11.9994 27.1322 12.0487L27.2304 12.676C27.25 12.8022 27.1185 12.8979 27.0046 12.8399L26.4383 12.5526C26.3937 12.53 26.341 12.53 26.2964 12.5526L25.7301 12.8399C25.6162 12.8976 25.4844 12.8022 25.5043 12.676L25.6025 12.0487C25.6102 11.9994 25.5938 11.9494 25.5587 11.9137L25.1105 11.464C25.0204 11.3735 25.0706 11.2189 25.1968 11.1987L25.8238 11.0981C25.8731 11.0901 25.9157 11.0591 25.9386 11.0148L26.2277 10.4497C26.2863 10.3358 26.4487 10.3358 26.507 10.4497Z" fill="#333333"/>
</svg>
