<svg width="18" height="14" viewBox="0 0 18 14" fill="none" xmlns="http://www.w3.org/2000/svg">
<path d="M16.944 6.30009H2.81311L8.22407 1.20696C8.50741 0.940259 8.51839 0.497165 8.24851 0.217168C7.97899 -0.0624786 7.53061 -0.0736785 7.24693 0.193018L1.06743 6.00995C0.800031 6.27454 0.652344 6.62594 0.652344 7.00009C0.652344 7.37388 0.800031 7.72563 1.07982 8.00177L7.24728 13.8068C7.38434 13.936 7.56001 14 7.73568 14C7.92268 14 8.10968 13.9272 8.24886 13.7827C8.51874 13.5027 8.50776 13.0599 8.22443 12.7932L2.7908 7.70008H16.944C17.335 7.70008 17.6523 7.38648 17.6523 7.00009C17.6523 6.61369 17.335 6.30009 16.944 6.30009Z" fill="#333333"/>
</svg>
