<svg width="75" height="75" viewBox="0 0 75 75" fill="none" xmlns="http://www.w3.org/2000/svg">
<path d="M66.4294 47.5188L55.6069 33.0078C54.7744 31.8863 53.1673 31.6435 52.0341 32.4644L49.0394 34.615C48.4844 35.0197 48.1144 35.6094 48.0104 36.2916C47.9526 36.6847 47.9873 37.0778 48.1144 37.4363C46.9698 37.7716 45.1313 38.1647 43.0038 38.0491C41.1076 37.945 39.2691 38.0953 37.5116 38.5C35.7541 38.0953 33.9041 37.9335 32.0194 38.0491C29.9035 38.1647 28.0651 37.7716 26.9088 37.4363C27.0244 37.0663 27.0707 36.6847 27.0013 36.2916C26.8973 35.6094 26.5273 35.0197 25.9723 34.615L22.9776 32.4644C21.8444 31.6435 20.2373 31.8863 19.4048 33.0078L8.58226 47.5303C8.17757 48.0738 8.00413 48.756 8.10819 49.4266C8.21226 50.1088 8.58226 50.6985 9.13726 51.1031L12.1319 53.2538C12.5829 53.5775 13.1148 53.7394 13.6351 53.7394C14.4213 53.7394 15.2076 53.381 15.7048 52.7103L15.8204 52.5485C16.7338 54.225 17.971 55.9941 19.5204 57.8556C19.1619 58.3297 18.9538 58.8269 18.9076 59.3356C18.8035 60.7463 19.3585 62.18 20.4107 63.1628C21.2432 63.9375 22.3069 64.3653 23.4054 64.3653C23.4979 64.3653 23.6019 64.3538 23.6944 64.3422C23.9026 65.3019 24.3766 66.2153 25.1166 66.8975C25.9723 67.7069 27.0707 68.1347 28.2038 68.1347H28.2501C28.4813 69.0135 28.9438 69.8344 29.626 70.4588C30.4585 71.2219 31.4876 71.6266 32.5744 71.6266C32.771 71.6266 32.9676 71.615 33.1757 71.5803C33.9388 71.4763 34.7713 71.06 35.6269 70.401C38.5176 71.4878 40.8185 72.0313 42.6107 72.0313C43.6398 72.0313 44.5069 71.8578 45.2238 71.4994C46.6807 70.7825 47.2704 69.4991 47.6057 68.4006C48.0451 68.4469 48.4613 68.4816 48.8544 68.4816C49.8604 68.4816 50.716 68.3081 51.4213 67.9728C52.9823 67.2328 53.5719 65.8453 53.8957 64.7122C54.0229 64.2613 54.0576 63.7988 54.0229 63.3363H54.231C55.2485 63.3363 56.0926 63.1628 56.7979 62.8275C58.3588 62.076 58.9369 60.6885 59.2723 59.5669C59.8851 57.4625 58.4976 55.6241 57.6535 54.7569C57.8501 54.1441 58.2779 53.1497 59.041 52.3519L59.2954 52.6988C59.7926 53.3694 60.5788 53.7278 61.3651 53.7278C61.8854 53.7278 62.4172 53.566 62.8682 53.2422L65.8629 51.0916C66.4179 50.6869 66.7879 50.0972 66.8919 49.415C66.996 48.7444 66.8341 48.0622 66.4179 47.5188H66.4294ZM13.8548 51.3113C13.7738 51.4269 13.6004 51.45 13.4848 51.3691L10.4901 49.2185C10.4207 49.1722 10.3976 49.1144 10.3976 49.0681C10.3976 49.0335 10.3976 48.9641 10.4438 48.9063L21.2663 34.3838C21.3473 34.2681 21.5207 34.245 21.6363 34.3375L24.631 36.4881C24.7004 36.5344 24.7235 36.5922 24.7235 36.6385C24.7235 36.6731 24.7235 36.7425 24.6773 36.8003L13.8548 51.3113ZM23.891 61.9488C23.8216 61.9719 23.7523 62.0066 23.6944 62.0181C22.8735 62.1338 22.2838 61.7175 22.0063 61.4631C21.4744 60.9544 21.1738 60.2028 21.2201 59.4975C21.2316 59.301 21.7866 58.5263 24.0182 57.5435C24.7698 57.2081 25.6601 57.4278 26.1919 58.0638C26.5504 58.5147 26.6544 59.1044 26.5041 59.6478C25.186 60.3763 24.3188 61.1394 23.891 61.9488ZM28.8513 65.7066C28.8513 65.7066 28.8282 65.7066 28.8166 65.7066C28.6894 65.7528 28.5854 65.776 28.5044 65.7875C27.6257 65.9147 27.0013 65.4638 26.7123 65.1978C26.1457 64.666 25.8335 63.8681 25.8913 63.1281C25.9029 62.9085 26.4694 62.1106 28.8166 61.07C29.071 60.9544 29.3369 60.9081 29.6029 60.9081C30.181 60.9081 30.7476 61.1625 31.1291 61.6366C31.7304 62.3766 31.6726 63.4519 31.0019 64.1341C30.0076 65.14 29.3023 65.5563 28.8513 65.7181V65.7066ZM35.2223 67.6838C34.3088 68.6203 33.4416 69.1985 32.8635 69.2794C32.2507 69.3603 31.6726 69.1638 31.1985 68.736C30.8285 68.4006 30.5741 67.9497 30.4701 67.4756C31.1638 67.0825 31.8923 66.516 32.6554 65.7528C32.956 65.4522 33.1873 65.1053 33.3723 64.7585C34.0776 64.5272 34.8754 64.7353 35.3726 65.3366C35.9391 66.0303 35.8929 67.0363 35.2454 67.6838H35.2223ZM57.0522 58.9194C56.7516 59.9485 56.4048 60.4572 55.8035 60.7463C54.7398 61.255 52.2191 61.336 46.2298 58.8269C45.6401 58.5841 44.9579 58.8616 44.7151 59.4513C44.4723 60.041 44.7498 60.7231 45.3394 60.966C47.8022 61.995 49.8835 62.6772 51.6294 63.0356C51.7566 63.4056 51.7798 63.741 51.6873 64.0531C51.3751 65.0938 51.0397 65.591 50.4385 65.88C49.3748 66.3888 46.8541 66.4697 40.8532 63.9606C40.2635 63.7178 39.5929 63.9953 39.3385 64.585C39.0957 65.1747 39.3732 65.8453 39.9629 66.0997C41.9979 66.9553 43.7669 67.5566 45.3163 67.9497C45.0388 68.7244 44.7151 69.1522 44.2179 69.4066C43.3623 69.8228 41.4891 69.9731 37.4307 68.5741C38.3441 67.1288 38.2632 65.2325 37.1416 63.8566C36.3091 62.8506 35.0719 62.3188 33.8232 62.3419C33.7423 61.5672 33.4416 60.8156 32.9213 60.1681C31.9269 58.9425 30.3544 58.3991 28.8629 58.665C28.7704 57.925 28.4698 57.1966 27.9841 56.5953C26.7932 55.15 24.7813 54.676 23.0932 55.4275C22.411 55.7281 21.8213 56.0288 21.301 56.341C19.5666 54.2481 18.2254 52.2478 17.3813 50.4672L25.6023 39.4481C26.8394 39.8644 29.2676 40.5119 32.1582 40.35C32.3663 40.3385 32.5744 40.35 32.771 40.3385C30.6551 41.5525 28.4813 42.3966 26.4348 43.1366C25.7641 43.3794 25.2207 43.8997 24.9432 44.5472C24.6773 45.1831 24.6888 45.9116 24.9779 46.536C26.3654 49.5422 29.1288 50.525 32.3432 49.1722C39.3385 46.2353 42.9576 49.1375 46.8079 52.2247C49.3401 54.2481 51.9416 56.341 55.3988 56.341C55.5723 56.341 55.7573 56.3178 55.9423 56.3063C56.4394 56.815 57.3644 57.9135 57.0638 58.9194H57.0522ZM55.4566 54.0285H55.3988C52.7394 54.0285 50.6351 52.3403 48.2416 50.421C44.4376 47.3685 39.6969 43.576 31.4413 47.0447C29.3369 47.935 27.9379 47.461 27.0707 45.5763C27.0707 45.5647 27.0476 45.5185 27.0707 45.4491C27.0823 45.4144 27.1285 45.345 27.221 45.3103C29.3601 44.5356 31.6494 43.6453 33.9273 42.3388C36.5288 40.8472 39.616 40.165 42.8766 40.3385C45.7788 40.5003 48.1954 39.8528 49.4326 39.4366L57.6651 50.4788C56.4279 51.6235 55.7804 53.0919 55.4798 54.0169L55.4566 54.0285ZM64.5101 49.2185L61.5154 51.3691C61.3997 51.45 61.2263 51.4269 61.1454 51.3228L50.3229 36.8003C50.2766 36.7425 50.2766 36.6847 50.2766 36.6385C50.2766 36.5922 50.2998 36.5344 50.3691 36.4881L53.3638 34.3375C53.3638 34.3375 53.4679 34.2913 53.5257 34.2913C53.6066 34.2913 53.6876 34.326 53.7338 34.3953L64.5563 48.9178C64.6026 48.9756 64.6026 49.0335 64.6026 49.0797C64.6026 49.126 64.5794 49.1838 64.5101 49.23V49.2185Z" fill="#333333"/>
<path d="M23.3015 13.4786C23.8796 13.7561 24.5733 13.5133 24.8508 12.9352C27.1402 8.09047 32.1121 4.95703 37.5002 4.95703C44.3799 4.95703 50.1033 9.91734 51.248 16.427L50.9358 16.2073C50.4155 15.8258 49.6987 15.953 49.3171 16.4733C48.9471 16.9936 49.0627 17.7105 49.583 18.092L51.9533 19.8033C52.1499 19.9536 52.3927 20.023 52.624 20.023C52.8552 20.023 53.098 19.9536 53.2946 19.8033L55.6649 18.092C56.1852 17.722 56.3008 16.9936 55.9308 16.4733C55.5608 15.953 54.8324 15.8373 54.3121 16.2073L53.6183 16.7045C52.5546 8.78422 45.7327 2.64453 37.4771 2.64453C31.1987 2.64453 25.4174 6.29828 22.7349 11.9408C22.4574 12.5189 22.7002 13.2011 23.2783 13.4786H23.3015Z" fill="#333333"/>
<path d="M20.6651 21.4916L21.3473 20.9944C22.4111 28.9263 29.2445 35.0544 37.4886 35.0544C43.767 35.0544 49.5483 31.4007 52.2308 25.7582C52.5083 25.18 52.2654 24.4863 51.6873 24.2204C51.1092 23.9429 50.4154 24.1857 50.1379 24.7638C47.8486 29.6085 42.8767 32.7419 37.4886 32.7419C30.6204 32.7419 24.897 27.7816 23.7408 21.2835L24.0414 21.5032C24.2495 21.6535 24.4808 21.7229 24.712 21.7229C25.0704 21.7229 25.4289 21.561 25.6486 21.2372C26.0186 20.7169 25.9029 20 25.3826 19.6185L23.0123 17.9072C22.6076 17.6182 22.0642 17.6182 21.6595 17.9072L19.2892 19.6185C18.7689 19.9885 18.6533 20.7169 19.0233 21.2372C19.3933 21.7575 20.1217 21.8732 20.642 21.5032L20.6651 21.4916Z" fill="#333333"/>
<path d="M38.078 8.44906C37.7196 8.24094 37.2802 8.24094 36.9217 8.44906L28.7817 13.155C28.4233 13.3631 28.2036 13.7447 28.2036 14.1609V23.5612C28.2036 23.9775 28.4233 24.3591 28.7817 24.5672L36.9217 29.2731C37.1067 29.3772 37.3033 29.4234 37.4999 29.4234C37.6964 29.4234 37.893 29.3772 38.078 29.2731L46.218 24.5672C46.5764 24.3591 46.7961 23.9775 46.7961 23.5612V14.1494C46.7961 13.7331 46.5764 13.3516 46.218 13.1434L38.078 8.4375V8.44906ZM36.3436 26.2437L30.5161 22.8791V16.1381L36.3436 19.5144V26.2437ZM37.4999 17.5141L31.6724 14.1494L37.4999 10.7847L43.3274 14.1494L37.4999 17.5141ZM44.4836 22.8791L38.6561 26.2437V19.5144L44.4836 16.1497V22.8791Z" fill="#333333"/>
</svg>
