<svg width="17" height="16" viewBox="0 0 17 16" fill="none" xmlns="http://www.w3.org/2000/svg">
<g clip-path="url(#clip0_478_8622)">
<path d="M12.7148 7.1875C13.06 7.1875 13.3398 6.90768 13.3398 6.5625C13.3398 6.21732 13.06 5.9375 12.7148 5.9375C12.3697 5.9375 12.0898 6.21732 12.0898 6.5625C12.0898 6.90768 12.3697 7.1875 12.7148 7.1875Z" fill="#333333"/>
<path d="M14.1523 1.25H13.3398V0.625C13.3398 0.279813 13.06 0 12.7148 0C12.3697 0 12.0898 0.279813 12.0898 0.625V1.25H9.24609V0.625C9.24609 0.279813 8.96628 0 8.62109 0C8.27591 0 7.99609 0.279813 7.99609 0.625V1.25H5.18359V0.625C5.18359 0.279813 4.90378 0 4.55859 0C4.21341 0 3.93359 0.279813 3.93359 0.625V1.25H3.15234C1.77384 1.25 0.652344 2.3715 0.652344 3.75V13.5C0.652344 14.8785 1.77384 16 3.15234 16H7.93359C8.27878 16 8.55859 15.7202 8.55859 15.375C8.55859 15.0298 8.27878 14.75 7.93359 14.75H3.15234C2.46309 14.75 1.90234 14.1892 1.90234 13.5V3.75C1.90234 3.06075 2.46309 2.5 3.15234 2.5H3.93359V3.125C3.93359 3.47019 4.21341 3.75 4.55859 3.75C4.90378 3.75 5.18359 3.47019 5.18359 3.125V2.5H7.99609V3.125C7.99609 3.47019 8.27591 3.75 8.62109 3.75C8.96628 3.75 9.24609 3.47019 9.24609 3.125V2.5H12.0898V3.125C12.0898 3.47019 12.3697 3.75 12.7148 3.75C13.06 3.75 13.3398 3.47019 13.3398 3.125V2.5H14.1523C14.8416 2.5 15.4023 3.06075 15.4023 3.75V7.3125C15.4023 7.65769 15.6822 7.9375 16.0273 7.9375C16.3725 7.9375 16.6523 7.65769 16.6523 7.3125V3.75C16.6523 2.3715 15.5308 1.25 14.1523 1.25Z" fill="#333333"/>
<path d="M12.8711 8.4375C10.7861 8.4375 9.08984 10.1337 9.08984 12.2188C9.08984 14.3038 10.7861 16 12.8711 16C14.9561 16 16.6523 14.3038 16.6523 12.2188C16.6523 10.1337 14.9561 8.4375 12.8711 8.4375ZM12.8711 14.75C11.4754 14.75 10.3398 13.6145 10.3398 12.2188C10.3398 10.823 11.4754 9.6875 12.8711 9.6875C14.2668 9.6875 15.4023 10.823 15.4023 12.2188C15.4023 13.6145 14.2668 14.75 12.8711 14.75Z" fill="#333333"/>
<path d="M13.7773 11.5938H13.4961V10.9375C13.4961 10.5923 13.2163 10.3125 12.8711 10.3125C12.5259 10.3125 12.2461 10.5923 12.2461 10.9375V12.2188C12.2461 12.5639 12.5259 12.8438 12.8711 12.8438H13.7773C14.1225 12.8438 14.4023 12.5639 14.4023 12.2188C14.4023 11.8736 14.1225 11.5938 13.7773 11.5938Z" fill="#333333"/>
<path d="M9.99609 7.1875C10.3413 7.1875 10.6211 6.90768 10.6211 6.5625C10.6211 6.21732 10.3413 5.9375 9.99609 5.9375C9.65092 5.9375 9.37109 6.21732 9.37109 6.5625C9.37109 6.90768 9.65092 7.1875 9.99609 7.1875Z" fill="#333333"/>
<path d="M7.27734 9.90625C7.62252 9.90625 7.90234 9.62643 7.90234 9.28125C7.90234 8.93607 7.62252 8.65625 7.27734 8.65625C6.93217 8.65625 6.65234 8.93607 6.65234 9.28125C6.65234 9.62643 6.93217 9.90625 7.27734 9.90625Z" fill="#333333"/>
<path d="M4.55859 7.1875C4.90377 7.1875 5.18359 6.90768 5.18359 6.5625C5.18359 6.21732 4.90377 5.9375 4.55859 5.9375C4.21342 5.9375 3.93359 6.21732 3.93359 6.5625C3.93359 6.90768 4.21342 7.1875 4.55859 7.1875Z" fill="#333333"/>
<path d="M4.55859 9.90625C4.90377 9.90625 5.18359 9.62643 5.18359 9.28125C5.18359 8.93607 4.90377 8.65625 4.55859 8.65625C4.21342 8.65625 3.93359 8.93607 3.93359 9.28125C3.93359 9.62643 4.21342 9.90625 4.55859 9.90625Z" fill="#333333"/>
<path d="M4.55859 12.625C4.90377 12.625 5.18359 12.3452 5.18359 12C5.18359 11.6548 4.90377 11.375 4.55859 11.375C4.21342 11.375 3.93359 11.6548 3.93359 12C3.93359 12.3452 4.21342 12.625 4.55859 12.625Z" fill="#333333"/>
<path d="M7.27734 12.625C7.62252 12.625 7.90234 12.3452 7.90234 12C7.90234 11.6548 7.62252 11.375 7.27734 11.375C6.93217 11.375 6.65234 11.6548 6.65234 12C6.65234 12.3452 6.93217 12.625 7.27734 12.625Z" fill="#333333"/>
<path d="M7.27734 7.1875C7.62252 7.1875 7.90234 6.90768 7.90234 6.5625C7.90234 6.21732 7.62252 5.9375 7.27734 5.9375C6.93217 5.9375 6.65234 6.21732 6.65234 6.5625C6.65234 6.90768 6.93217 7.1875 7.27734 7.1875Z" fill="#333333"/>
</g>
<defs>
<clipPath id="clip0_478_8622">
<rect width="16" height="16" fill="white" transform="translate(0.652344)"/>
</clipPath>
</defs>
</svg>
