<svg width="69" height="68" viewBox="0 0 69 68" fill="none" xmlns="http://www.w3.org/2000/svg">
<g clip-path="url(#clip0_478_10840)">
<path fill-rule="evenodd" clip-rule="evenodd" d="M34.5 0.116211C15.9499 0.116211 0.868164 15.198 0.868164 33.748C0.868164 52.2981 15.9499 67.3799 34.5 67.3799C53.0501 67.3799 68.1318 52.2981 68.1318 33.748C68.1318 15.198 53.0501 0.116211 34.5 0.116211Z" fill="#4BAE4F"/>
<path fill-rule="evenodd" clip-rule="evenodd" d="M50.7642 22.4103C51.5787 23.2248 51.5787 24.5648 50.7642 25.3794L31.058 45.0855C30.6508 45.4928 30.1121 45.703 29.5735 45.703C29.0349 45.703 28.4962 45.4928 28.089 45.0855L18.2359 35.2324C17.4214 34.4179 17.4214 33.0779 18.2359 32.2634C19.0504 31.4489 20.3904 31.4489 21.205 32.2634L29.5735 40.6319L47.7951 22.4103C48.6096 21.5826 49.9497 21.5826 50.7642 22.4103Z" fill="white"/>
</g>
<defs>
<clipPath id="clip0_478_10840">
<rect width="67.2637" height="67.2637" fill="white" transform="translate(0.868164 0.116211)"/>
</clipPath>
</defs>
</svg>
