<svg width="26" height="26" viewBox="0 0 26 26" fill="none" xmlns="http://www.w3.org/2000/svg">
<g clip-path="url(#clip0_478_9588)">
<path d="M1.26928 25.9997C1.01816 25.9997 0.77266 25.9253 0.563843 25.7858C0.355026 25.6463 0.19227 25.448 0.0961629 25.216C5.55437e-05 24.984 -0.0250858 24.7287 0.0239189 24.4824C0.0729237 24.2361 0.193873 24.0099 0.371468 23.8323L23.8324 0.371398C24.0705 0.133283 24.3935 -0.000488281 24.7302 -0.000488281C25.067 -0.000488281 25.3899 0.133283 25.628 0.371398C25.8661 0.609512 25.9999 0.932465 25.9999 1.26921C25.9999 1.60596 25.8661 1.92891 25.628 2.16702L2.16709 25.628C2.0493 25.746 1.90935 25.8396 1.75527 25.9034C1.6012 25.9672 1.43604 25.9999 1.26928 25.9997Z" fill="#333333"/>
<path d="M24.7302 25.9997C24.5634 25.9999 24.3982 25.9672 24.2442 25.9034C24.0901 25.8396 23.9501 25.746 23.8323 25.628L0.371398 2.16702C0.133283 1.92891 -0.000488281 1.60596 -0.000488281 1.26921C-0.000488281 0.932465 0.133283 0.609512 0.371398 0.371398C0.609513 0.133283 0.932465 -0.000488281 1.26921 -0.000488281C1.60596 -0.000488281 1.92891 0.133283 2.16702 0.371398L25.628 23.8323C25.8056 24.0099 25.9265 24.2361 25.9755 24.4824C26.0245 24.7287 25.9994 24.984 25.9033 25.216C25.8072 25.448 25.6444 25.6463 25.4356 25.7858C25.2268 25.9253 24.9813 25.9997 24.7302 25.9997Z" fill="#333333"/>
</g>
<defs>
<clipPath id="clip0_478_9588">
<rect width="26" height="26" fill="white"/>
</clipPath>
</defs>
</svg>
