<svg width="13" height="14" viewBox="0 0 13 14" fill="none" xmlns="http://www.w3.org/2000/svg">
<g clip-path="url(#clip0_737_7851)">
<path d="M7.80352 2.4078C7.49433 2.4078 7.25293 2.15561 7.25293 1.85721C7.25293 1.53257 7.53561 1.27721 7.85773 1.30938C8.14393 1.3399 8.3541 1.57623 8.3541 1.85721C8.3541 2.15573 8.11282 2.4078 7.80352 2.4078Z" fill="#55B8DA"/>
<path d="M11.5103 7.76127H11.5106C11.5392 7.45871 11.8079 7.23658 12.1107 7.26517C12.4133 7.2938 12.6354 7.56252 12.6068 7.86533C12.5795 8.15024 12.3398 8.36386 12.0592 8.36386C11.7323 8.36389 11.4799 8.08325 11.5103 7.76127Z" fill="#55B8DA"/>
<path d="M11.3627 5.9773C11.2839 5.68357 11.4582 5.38184 11.7519 5.30309C12.0457 5.22436 12.3477 5.39863 12.4264 5.69238C12.5052 5.98611 12.3306 6.2881 12.0371 6.36686C11.9892 6.37953 11.9413 6.38556 11.8943 6.38556C11.6509 6.38556 11.4285 6.22343 11.3627 5.9773Z" fill="#55B8DA"/>
<path d="M10.598 4.36039C10.421 4.11291 10.478 3.76905 10.7252 3.59205C10.9725 3.41532 11.3163 3.47202 11.4933 3.71951C11.6703 3.9667 11.6133 4.31055 11.3661 4.48755C11.2689 4.55693 11.1572 4.59052 11.0462 4.59052C10.8744 4.59052 10.7054 4.51042 10.598 4.36039Z" fill="#55B8DA"/>
<path d="M9.16524 2.34726C9.3351 2.09508 9.67731 2.02873 9.92947 2.19859C10.1816 2.36872 10.2482 2.71093 10.0781 2.9628C9.97187 3.12055 9.79815 3.2056 9.62115 3.2056C9.18392 3.2056 8.91773 2.71408 9.16524 2.34726Z" fill="#55B8DA"/>
<path d="M11.5203 10.2769C11.2174 10.2769 10.9697 10.0305 10.9697 9.72635C10.9697 9.40107 11.2519 9.14653 11.5746 9.1785C11.8657 9.21049 12.0709 9.44899 12.0709 9.72635C12.0709 10.023 11.8303 10.2769 11.5203 10.2769Z" fill="#55B8DA"/>
<path d="M10.8014 10.7768C10.5828 10.5971 10.2635 10.6125 10.0631 10.8124C9.15945 11.7136 7.94253 12.2417 6.65523 12.2776C3.886 12.355 1.57015 10.165 1.4928 7.39577C1.43785 5.42875 2.53794 3.63543 4.24711 2.77072L4.42404 3.49607C4.46487 3.66352 4.67354 3.72128 4.79467 3.59867L6.47914 1.89355C6.59439 1.7769 6.54628 1.57972 6.39027 1.52924L4.10986 0.791271C3.94588 0.73821 3.78724 0.885554 3.82809 1.053L3.98046 1.67764C1.76571 2.68382 0.322644 4.94151 0.392046 7.42651C0.486575 10.8106 3.30158 13.4729 6.68597 13.3784C8.25521 13.3345 9.73861 12.691 10.8401 11.5927C11.0708 11.3626 11.0531 10.9838 10.8014 10.7768Z" fill="white"/>
</g>
<defs>
<clipPath id="clip0_737_7851">
<rect width="12.6006" height="12.6006" fill="white" transform="translate(0.199219 0.780273)"/>
</clipPath>
</defs>
</svg>
