<svg xmlns="http://www.w3.org/2000/svg" viewBox="0 0 1920 60" aria-hidden="true">
        <path fill="rgba(255, 255, 255, 1)" d="M1897,44c-27.225-3.493-36.3-15.483-67-20-36.435-5.361-56.969,8.474-89,16-61.3,14.4-80.376-1.993-139-14-83-17-181,34-638,34-1.329,0-2.665,0-4-.006S957.329,60,956,60C499,60,401,9,318,26c-58.624,12.007-77.7,28.4-139,14-32.031-7.526-52.565-21.361-89-16C59.3,28.517,50.225,40.507,23,44c-18.082,2.32-45.013-.8-81-28V83H1978V16C1942.013,43.2,1915.082,46.32,1897,44Z"></path>
      </svg>