<svg width="17" height="19" viewBox="0 0 17 19" fill="none" xmlns="http://www.w3.org/2000/svg">
<path d="M8.01167 14.9159C8.10917 15.012 8.24057 15.0659 8.37747 15.0659C8.51436 15.0659 8.64576 15.012 8.74326 14.9159L14.1509 9.51176C14.2497 9.41474 14.306 9.28243 14.3073 9.14394C14.3085 9.00544 14.2548 8.87211 14.1578 8.77326C14.0607 8.67441 13.9284 8.61816 13.7899 8.61686C13.6514 8.61557 13.5181 8.66934 13.4193 8.76636L8.8951 13.3009V0.974181C8.8951 0.836895 8.84057 0.705232 8.74349 0.608156C8.64641 0.51108 8.51475 0.456543 8.37747 0.456543C8.24018 0.456543 8.10852 0.51108 8.01144 0.608156C7.91436 0.705232 7.85983 0.836895 7.85983 0.974181V13.3009L3.33567 8.76636C3.28785 8.71795 3.23089 8.67951 3.16809 8.65327C3.1053 8.62704 3.03793 8.61353 2.96987 8.61353C2.90182 8.61353 2.83445 8.62704 2.77165 8.65327C2.70886 8.67951 2.6519 8.71795 2.60408 8.76636C2.50797 8.86386 2.4541 8.99526 2.4541 9.13216C2.4541 9.26905 2.50797 9.40045 2.60408 9.49795L8.01167 14.9159Z" fill="#5DB9EF"/>
<path d="M16.0977 15.2095C15.9604 15.2095 15.8287 15.264 15.7317 15.3611C15.6346 15.4582 15.58 15.5898 15.58 15.7271V17.4215H1.1759V15.7271C1.1759 15.5898 1.12136 15.4582 1.02429 15.3611C0.927212 15.264 0.795549 15.2095 0.658263 15.2095C0.520977 15.2095 0.389314 15.264 0.292238 15.3611C0.195162 15.4582 0.140625 15.5898 0.140625 15.7271V17.9392C0.140625 18.0764 0.195162 18.2081 0.292238 18.3052C0.389314 18.4023 0.520977 18.4568 0.658263 18.4568H16.0977C16.235 18.4568 16.3666 18.4023 16.4637 18.3052C16.5608 18.2081 16.6153 18.0764 16.6153 17.9392V15.7271C16.6153 15.5898 16.5608 15.4582 16.4637 15.3611C16.3666 15.264 16.235 15.2095 16.0977 15.2095Z" fill="#5DB9EF"/>
</svg>
