<svg width="25" height="25" viewBox="0 0 25 25" fill="none" xmlns="http://www.w3.org/2000/svg">
<mask id="mask0_585_3071" style="mask-type:alpha" maskUnits="userSpaceOnUse" x="0" y="0" width="25" height="25">
<rect x="0.790039" y="0.427979" width="24" height="24" fill="#D9D9D9"/>
</mask>
<g mask="url(#mask0_585_3071)">
<path d="M12.7903 3.15498C13.1971 3.15498 13.5269 2.82515 13.5269 2.41838V1.33804C13.5269 0.931273 13.1971 0.60144 12.7903 0.60144C12.3835 0.60144 12.0537 0.931273 12.0537 1.33804V2.41838C12.0537 2.82515 12.3835 3.15498 12.7903 3.15498Z" fill="#EB6A56"/>
<path d="M2.60698 11.8649H1.52664C1.11987 11.8649 0.790039 12.1947 0.790039 12.6015C0.790039 13.0082 1.11987 13.3381 1.52664 13.3381H2.60616C3.01293 13.3381 3.34276 13.0082 3.34276 12.6015C3.34276 12.1947 3.01375 11.8649 2.60698 11.8649Z" fill="#EB6A56"/>
<path d="M24.0534 11.8649H22.9739C22.5671 11.8649 22.2373 12.1947 22.2373 12.6015C22.2373 13.0082 22.5671 13.3381 22.9739 13.3381H24.0534C24.4602 13.3381 24.79 13.0082 24.79 12.6015C24.79 12.1947 24.4602 11.8649 24.0534 11.8649Z" fill="#EB6A56"/>
<path d="M20.2342 4.1158L19.469 4.87941C19.1809 5.1675 19.1809 5.6332 19.469 5.92129C19.613 6.06533 19.8013 6.13736 19.9903 6.13736C20.1794 6.13736 20.3676 6.06533 20.5109 5.92211L21.2761 5.1585C21.5642 4.87041 21.5642 4.40471 21.2761 4.11662C20.988 3.82853 20.5199 3.82853 20.2342 4.1158Z" fill="#EB6A56"/>
<path d="M6.11093 5.92133C6.39902 5.63324 6.39902 5.16754 6.11093 4.87945L5.34569 4.11585C5.05923 3.82857 4.5919 3.82857 4.30463 4.11585C4.01736 4.40312 4.01654 4.86963 4.30463 5.15772L5.06987 5.92133C5.2131 6.06456 5.40134 6.13658 5.5904 6.13658C5.77946 6.13658 5.96688 6.06537 6.11093 5.92133Z" fill="#EB6A56"/>
<path d="M11.9713 5.97944C9.02493 6.32564 6.59088 8.64674 6.12519 11.5776C5.70369 14.231 6.83069 16.6519 8.74093 18.085C9.27537 18.4861 9.61175 19.0892 9.6314 19.7538H15.9473C15.9645 19.0933 16.296 18.4901 16.828 18.0932C18.4755 16.8623 19.5427 14.8988 19.5427 12.6841C19.5427 8.68439 16.0668 5.49737 11.9713 5.97944Z" fill="#EB6A56"/>
<path d="M9.63867 20.9839V21.1034C9.63867 21.9792 9.9906 22.7649 10.5635 23.3296C11.1282 23.9025 11.9221 24.2544 12.7897 24.2544C14.533 24.2544 15.9407 22.8467 15.9407 21.1034V20.9839H9.63867Z" fill="#EB6A56"/>
</g>
</svg>
