<svg width="25" height="25" viewBox="0 0 25 25" fill="none" xmlns="http://www.w3.org/2000/svg">
<g clip-path="url(#clip0_585_3050)">
<path d="M4.92383 9.42798C6.58068 9.42798 7.92383 8.08483 7.92383 6.42798C7.92383 4.77112 6.58068 3.42798 4.92383 3.42798C3.26697 3.42798 1.92383 4.77112 1.92383 6.42798C1.92383 8.08483 3.26697 9.42798 4.92383 9.42798Z" fill="#EB6A56"/>
<path d="M8.21383 11.498C7.20733 12.126 6.37722 12.9999 5.80165 14.0373C5.22608 15.0748 4.924 16.2416 4.92383 17.428H2.92383C2.39388 17.4264 1.88609 17.2152 1.51136 16.8404C1.13663 16.4657 0.925411 15.9579 0.923828 15.428L0.923828 13.428C0.926202 12.6331 1.24304 11.8714 1.80513 11.3093C2.36723 10.7472 3.12891 10.4304 3.92383 10.428H5.92383C6.3604 10.429 6.79149 10.5252 7.18702 10.71C7.58254 10.8948 7.93297 11.1637 8.21383 11.498Z" fill="#EB6A56"/>
<path d="M20.9238 9.42798C22.5807 9.42798 23.9238 8.08483 23.9238 6.42798C23.9238 4.77112 22.5807 3.42798 20.9238 3.42798C19.267 3.42798 17.9238 4.77112 17.9238 6.42798C17.9238 8.08483 19.267 9.42798 20.9238 9.42798Z" fill="#EB6A56"/>
<path d="M24.9238 13.428V15.428C24.9222 15.9579 24.711 16.4657 24.3363 16.8404C23.9615 17.2152 23.4537 17.4264 22.9238 17.428H20.9238C20.9236 16.2416 20.6215 15.0748 20.046 14.0373C19.4704 12.9999 18.6403 12.126 17.6338 11.498C17.9146 11.1637 18.2651 10.8948 18.6606 10.71C19.0561 10.5252 19.4872 10.429 19.9238 10.428H21.9238C22.7187 10.4304 23.4804 10.7472 24.0425 11.3093C24.6046 11.8714 24.9214 12.6331 24.9238 13.428Z" fill="#EB6A56"/>
<path d="M12.9238 11.428C15.133 11.428 16.9238 9.63712 16.9238 7.42798C16.9238 5.21884 15.133 3.42798 12.9238 3.42798C10.7147 3.42798 8.92383 5.21884 8.92383 7.42798C8.92383 9.63712 10.7147 11.428 12.9238 11.428Z" fill="#EB6A56"/>
<path d="M18.9238 17.428V18.428C18.9215 19.2229 18.6046 19.9846 18.0425 20.5467C17.4804 21.1088 16.7187 21.4256 15.9238 21.428H9.92383C9.12891 21.4256 8.36723 21.1088 7.80513 20.5467C7.24304 19.9846 6.9262 19.2229 6.92383 18.428V17.428C6.92383 16.1019 7.45061 14.8301 8.38829 13.8924C9.32598 12.9548 10.5977 12.428 11.9238 12.428H13.9238C15.2499 12.428 16.5217 12.9548 17.4594 13.8924C18.397 14.8301 18.9238 16.1019 18.9238 17.428Z" fill="#EB6A56"/>
</g>
<defs>
<clipPath id="clip0_585_3050">
<rect width="24" height="24" fill="white" transform="translate(0.923828 0.427979)"/>
</clipPath>
</defs>
</svg>
