<svg width="25" height="25" viewBox="0 0 25 25" fill="none" xmlns="http://www.w3.org/2000/svg">
<g clip-path="url(#clip0_585_3009)">
<path d="M6.02796 23.9427C5.76501 23.9427 5.5039 23.8606 5.28105 23.6995C4.86594 23.3986 4.67203 22.8815 4.78501 22.3826L6.32899 15.5813L1.09277 10.9893C0.707877 10.6533 0.56084 10.1211 0.718864 9.63426C0.876888 9.14828 1.30683 8.80422 1.81588 8.75716L8.74403 8.12818L11.4832 1.71804C11.6851 1.24708 12.1451 0.942932 12.6562 0.942932C13.1672 0.942932 13.6272 1.24708 13.8292 1.71694L16.5683 8.12818L23.4954 8.75716C24.0055 8.80312 24.4355 9.14828 24.5935 9.63426C24.7515 10.1202 24.6054 10.6533 24.2205 10.9893L18.9843 15.5804L20.5283 22.3815C20.6414 22.8815 20.4473 23.3986 20.0324 23.6986C19.6184 23.9985 19.0663 24.0216 18.6303 23.7596L12.6562 20.1895L6.68203 23.7616C6.48006 23.8815 6.25502 23.9427 6.02796 23.9427ZM12.6562 18.6515C12.8832 18.6515 13.1081 18.7125 13.3103 18.8324L18.9484 22.2046L17.4912 15.7853C17.3872 15.3284 17.5423 14.8514 17.8953 14.5423L22.8395 10.2063L16.2982 9.61228C15.8273 9.56925 15.4222 9.27316 15.2382 8.83919L12.6562 2.78996L10.071 8.84011C9.88902 9.27115 9.48398 9.56724 9.01412 9.61027L2.47196 10.2043L7.41594 14.5403C7.77007 14.8503 7.92498 15.3264 7.82006 15.7844L6.36397 22.2035L12.0021 18.8324C12.2041 18.7125 12.4291 18.6515 12.6562 18.6515ZM8.69111 8.25214C8.69111 8.25214 8.69111 8.25324 8.69002 8.25415L8.69111 8.25214ZM16.6192 8.24921L16.6203 8.25123C16.6203 8.25013 16.6203 8.25013 16.6192 8.24921Z" fill="#EB6A56"/>
</g>
<defs>
<clipPath id="clip0_585_3009">
<rect width="24" height="24" fill="white" transform="translate(0.65625 0.427979)"/>
</clipPath>
</defs>
</svg>
