<svg width="193" height="46" viewBox="0 0 193 46" fill="none" xmlns="http://www.w3.org/2000/svg">
<rect x="1" y="1.32373" width="191" height="44" rx="4.5" fill="white" stroke="#3D6AD6"/>
<path d="M64.24 22.3257H70.9V23.4777H64.24V22.3257ZM64.384 28.8237H63.052V16.2237H71.692V17.3757H64.384V28.8237ZM79.7079 28.8237V26.7357L79.6539 26.3937V22.9017C79.6539 22.0977 79.4259 21.4797 78.9699 21.0477C78.5259 20.6157 77.8599 20.3997 76.9719 20.3997C76.3599 20.3997 75.7779 20.5017 75.2259 20.7057C74.6739 20.9097 74.2059 21.1797 73.8219 21.5157L73.2459 20.5617C73.7259 20.1537 74.3019 19.8417 74.9739 19.6257C75.6459 19.3977 76.3539 19.2837 77.0979 19.2837C78.3219 19.2837 79.2639 19.5897 79.9239 20.2017C80.5959 20.8017 80.9319 21.7197 80.9319 22.9557V28.8237H79.7079ZM76.4499 28.9137C75.7419 28.9137 75.1239 28.7997 74.5959 28.5717C74.0799 28.3317 73.6839 28.0077 73.4079 27.5997C73.1319 27.1797 72.9939 26.6997 72.9939 26.1597C72.9939 25.6677 73.1079 25.2237 73.3359 24.8277C73.5759 24.4197 73.9599 24.0957 74.4879 23.8557C75.0279 23.6037 75.7479 23.4777 76.6479 23.4777H79.9059V24.4317H76.6839C75.7719 24.4317 75.1359 24.5937 74.7759 24.9177C74.4279 25.2417 74.2539 25.6437 74.2539 26.1237C74.2539 26.6637 74.4639 27.0957 74.8839 27.4197C75.3039 27.7437 75.8919 27.9057 76.6479 27.9057C77.3679 27.9057 77.9859 27.7437 78.5019 27.4197C79.0299 27.0837 79.4139 26.6037 79.6539 25.9797L79.9419 26.8617C79.7019 27.4857 79.2819 27.9837 78.6819 28.3557C78.0939 28.7277 77.3499 28.9137 76.4499 28.9137ZM88.3271 28.9137C87.3911 28.9137 86.5511 28.7097 85.8071 28.3017C85.0751 27.8817 84.4991 27.3117 84.0791 26.5917C83.6591 25.8597 83.4491 25.0257 83.4491 24.0897C83.4491 23.1417 83.6591 22.3077 84.0791 21.5877C84.4991 20.8677 85.0751 20.3037 85.8071 19.8957C86.5511 19.4877 87.3911 19.2837 88.3271 19.2837C89.1311 19.2837 89.8571 19.4397 90.5051 19.7517C91.1531 20.0637 91.6631 20.5317 92.0351 21.1557L91.0811 21.8037C90.7571 21.3237 90.3551 20.9697 89.8751 20.7417C89.3951 20.5137 88.8731 20.3997 88.3091 20.3997C87.6371 20.3997 87.0311 20.5557 86.4911 20.8677C85.9511 21.1677 85.5251 21.5937 85.2131 22.1457C84.9011 22.6977 84.7451 23.3457 84.7451 24.0897C84.7451 24.8337 84.9011 25.4817 85.2131 26.0337C85.5251 26.5857 85.9511 27.0177 86.4911 27.3297C87.0311 27.6297 87.6371 27.7797 88.3091 27.7797C88.8731 27.7797 89.3951 27.6657 89.8751 27.4377C90.3551 27.2097 90.7571 26.8617 91.0811 26.3937L92.0351 27.0417C91.6631 27.6537 91.1531 28.1217 90.5051 28.4457C89.8571 28.7577 89.1311 28.9137 88.3271 28.9137ZM98.4015 28.9137C97.4175 28.9137 96.5535 28.7097 95.8095 28.3017C95.0655 27.8817 94.4835 27.3117 94.0635 26.5917C93.6435 25.8597 93.4335 25.0257 93.4335 24.0897C93.4335 23.1537 93.6315 22.3257 94.0275 21.6057C94.4355 20.8857 94.9875 20.3217 95.6835 19.9137C96.3915 19.4937 97.1835 19.2837 98.0595 19.2837C98.9475 19.2837 99.7335 19.4877 100.417 19.8957C101.113 20.2917 101.659 20.8557 102.055 21.5877C102.451 22.3077 102.649 23.1417 102.649 24.0897C102.649 24.1497 102.643 24.2157 102.631 24.2877C102.631 24.3477 102.631 24.4137 102.631 24.4857H94.4055V23.5317H101.947L101.443 23.9097C101.443 23.2257 101.293 22.6197 100.993 22.0917C100.705 21.5517 100.309 21.1317 99.8055 20.8317C99.3015 20.5317 98.7195 20.3817 98.0595 20.3817C97.4115 20.3817 96.8295 20.5317 96.3135 20.8317C95.7975 21.1317 95.3955 21.5517 95.1075 22.0917C94.8195 22.6317 94.6755 23.2497 94.6755 23.9457V24.1437C94.6755 24.8637 94.8315 25.4997 95.1435 26.0517C95.4675 26.5917 95.9115 27.0177 96.4755 27.3297C97.0515 27.6297 97.7055 27.7797 98.4375 27.7797C99.0135 27.7797 99.5475 27.6777 100.039 27.4737C100.543 27.2697 100.975 26.9577 101.335 26.5377L102.055 27.3657C101.635 27.8697 101.107 28.2537 100.471 28.5177C99.8475 28.7817 99.1575 28.9137 98.4015 28.9137ZM110.129 28.9137C109.301 28.9137 108.557 28.7277 107.897 28.3557C107.237 27.9717 106.715 27.4197 106.331 26.6997C105.947 25.9797 105.755 25.1097 105.755 24.0897C105.755 23.0577 105.947 22.1877 106.331 21.4797C106.727 20.7597 107.255 20.2137 107.915 19.8417C108.575 19.4697 109.313 19.2837 110.129 19.2837C111.029 19.2837 111.833 19.4877 112.541 19.8957C113.261 20.2917 113.825 20.8497 114.233 21.5697C114.641 22.2897 114.845 23.1297 114.845 24.0897C114.845 25.0377 114.641 25.8777 114.233 26.6097C113.825 27.3297 113.261 27.8937 112.541 28.3017C111.833 28.7097 111.029 28.9137 110.129 28.9137ZM105.251 28.8237V15.4677H106.529V22.1637L106.349 24.0717L106.475 25.9797V28.8237H105.251ZM110.039 27.7797C110.711 27.7797 111.311 27.6297 111.839 27.3297C112.367 27.0177 112.787 26.5857 113.099 26.0337C113.411 25.4697 113.567 24.8217 113.567 24.0897C113.567 23.3457 113.411 22.6977 113.099 22.1457C112.787 21.5937 112.367 21.1677 111.839 20.8677C111.311 20.5557 110.711 20.3997 110.039 20.3997C109.367 20.3997 108.761 20.5557 108.221 20.8677C107.693 21.1677 107.273 21.5937 106.961 22.1457C106.661 22.6977 106.511 23.3457 106.511 24.0897C106.511 24.8217 106.661 25.4697 106.961 26.0337C107.273 26.5857 107.693 27.0177 108.221 27.3297C108.761 27.6297 109.367 27.7797 110.039 27.7797ZM121.302 28.9137C120.39 28.9137 119.568 28.7097 118.836 28.3017C118.116 27.8817 117.546 27.3117 117.126 26.5917C116.706 25.8597 116.496 25.0257 116.496 24.0897C116.496 23.1417 116.706 22.3077 117.126 21.5877C117.546 20.8677 118.116 20.3037 118.836 19.8957C119.556 19.4877 120.378 19.2837 121.302 19.2837C122.238 19.2837 123.066 19.4877 123.786 19.8957C124.518 20.3037 125.088 20.8677 125.496 21.5877C125.916 22.3077 126.126 23.1417 126.126 24.0897C126.126 25.0257 125.916 25.8597 125.496 26.5917C125.088 27.3117 124.518 27.8817 123.786 28.3017C123.054 28.7097 122.226 28.9137 121.302 28.9137ZM121.302 27.7797C121.986 27.7797 122.592 27.6297 123.12 27.3297C123.648 27.0177 124.062 26.5857 124.362 26.0337C124.674 25.4697 124.83 24.8217 124.83 24.0897C124.83 23.3457 124.674 22.6977 124.362 22.1457C124.062 21.5937 123.648 21.1677 123.12 20.8677C122.592 20.5557 121.992 20.3997 121.32 20.3997C120.648 20.3997 120.048 20.5557 119.52 20.8677C118.992 21.1677 118.572 21.5937 118.26 22.1457C117.948 22.6977 117.792 23.3457 117.792 24.0897C117.792 24.8217 117.948 25.4697 118.26 26.0337C118.572 26.5857 118.992 27.0177 119.52 27.3297C120.048 27.6297 120.642 27.7797 121.302 27.7797ZM132.587 28.9137C131.675 28.9137 130.853 28.7097 130.121 28.3017C129.401 27.8817 128.831 27.3117 128.411 26.5917C127.991 25.8597 127.781 25.0257 127.781 24.0897C127.781 23.1417 127.991 22.3077 128.411 21.5877C128.831 20.8677 129.401 20.3037 130.121 19.8957C130.841 19.4877 131.663 19.2837 132.587 19.2837C133.523 19.2837 134.351 19.4877 135.071 19.8957C135.803 20.3037 136.373 20.8677 136.781 21.5877C137.201 22.3077 137.411 23.1417 137.411 24.0897C137.411 25.0257 137.201 25.8597 136.781 26.5917C136.373 27.3117 135.803 27.8817 135.071 28.3017C134.339 28.7097 133.511 28.9137 132.587 28.9137ZM132.587 27.7797C133.271 27.7797 133.877 27.6297 134.405 27.3297C134.933 27.0177 135.347 26.5857 135.647 26.0337C135.959 25.4697 136.115 24.8217 136.115 24.0897C136.115 23.3457 135.959 22.6977 135.647 22.1457C135.347 21.5937 134.933 21.1677 134.405 20.8677C133.877 20.5557 133.277 20.3997 132.605 20.3997C131.933 20.3997 131.333 20.5557 130.805 20.8677C130.277 21.1677 129.857 21.5937 129.545 22.1457C129.233 22.6977 129.077 23.3457 129.077 24.0897C129.077 24.8217 129.233 25.4697 129.545 26.0337C129.857 26.5857 130.277 27.0177 130.805 27.3297C131.333 27.6297 131.927 27.7797 132.587 27.7797ZM141.028 26.3757L141.064 24.7377L146.95 19.3737H148.516L144.358 23.3517L143.638 23.9637L141.028 26.3757ZM140.02 28.8237V15.4677H141.298V28.8237H140.02ZM147.346 28.8237L143.404 23.9097L144.232 22.9197L148.912 28.8237H147.346Z" fill="#3D6AD6"/>
<path d="M37.3173 24.7883C37.2309 24.7883 35.4195 24.7888 34.5841 24.788C34.154 24.7877 34.0005 24.6389 34.0005 24.2219C34 23.1509 33.9997 22.08 34.0005 21.009C34.0008 20.5973 34.163 20.4402 34.5876 20.44C35.4231 20.4394 37.2246 20.4397 37.3173 20.4397C37.3173 20.3663 37.317 18.8201 37.3173 18.1081C37.3178 17.0554 37.5128 16.0477 38.068 15.1251C38.6365 14.1807 39.4637 13.5338 40.5238 13.1598C41.2028 12.9201 41.9076 12.8244 42.6281 12.8239C43.5295 12.8234 44.431 12.8242 45.3327 12.8257C45.7202 12.8263 45.8921 12.9913 45.8929 13.3672C45.8945 14.3746 45.8945 15.382 45.8929 16.3892C45.8923 16.769 45.7276 16.9216 45.3313 16.9258C44.5924 16.9335 43.8529 16.9288 43.1148 16.9574C42.3693 16.9574 41.9772 17.3081 41.9772 18.0514C41.9593 18.8376 41.9697 19.6246 41.9697 20.4394C42.0396 20.4394 44.1612 20.4392 45.1529 20.4394C45.6033 20.4394 45.7573 20.5886 45.7573 21.0249C45.7573 22.09 45.757 23.1554 45.7562 24.2206C45.7559 24.6505 45.6113 24.7877 45.1581 24.788C44.1664 24.7885 42.0531 24.7883 41.9607 24.7883V33.4094C41.9607 33.869 41.8105 34.0155 41.3397 34.0155C40.1919 34.0155 39.0437 34.0157 37.8959 34.0155C37.4798 34.0155 37.3176 33.8597 37.3176 33.4589C37.3173 30.6513 37.3173 24.8868 37.3173 24.7883Z" fill="#3D6AD6"/>
</svg>
