<svg width="88" height="88" viewBox="0 0 88 88" fill="none" xmlns="http://www.w3.org/2000/svg">
<path d="M47.7705 62.9062C49.669 62.9062 51.208 61.3672 51.208 59.4688C51.208 57.5703 49.669 56.0312 47.7705 56.0312C45.872 56.0312 44.333 57.5703 44.333 59.4688C44.333 61.3672 45.872 62.9062 47.7705 62.9062Z" fill="#333333"/>
<path d="M59.2861 81.1248H16.4893C12.6984 81.1248 9.61426 78.0407 9.61426 74.2498V46.0623C9.61426 42.2715 12.6984 39.1873 16.4893 39.1873H65.9893C66.772 39.1873 67.393 39.2564 67.888 39.3982C69.7129 39.9211 71.6163 38.8654 72.1393 37.0404C72.6621 35.2155 71.6065 33.3121 69.7815 32.7891C68.6621 32.4684 67.4217 32.3125 65.9893 32.3125H61.8579V20.1895C61.8579 9.05695 52.6055 0 41.2329 0C29.8603 0 20.6079 9.05695 20.6079 20.1895V32.3125H16.4893C8.90751 32.3125 2.73926 38.4808 2.73926 46.0625V74.25C2.73926 81.8317 8.90751 88 16.4893 88H59.2861C61.1847 88 62.7236 86.461 62.7236 84.5625C62.7236 82.664 61.1847 81.125 59.2861 81.1248ZM27.4829 20.1895C27.4829 12.8478 33.6511 6.875 41.2329 6.875C48.8146 6.875 54.9829 12.8478 54.9829 20.1895V32.3125H27.4829V20.1895Z" fill="#333333"/>
<path d="M34.8799 62.9062C36.7784 62.9062 38.3174 61.3672 38.3174 59.4688C38.3174 57.5703 36.7784 56.0312 34.8799 56.0312C32.9814 56.0312 31.4424 57.5703 31.4424 59.4688C31.4424 61.3672 32.9814 62.9062 34.8799 62.9062Z" fill="#333333"/>
<path d="M85.2579 56.9267C85.1826 50.2599 79.7356 44.8594 73.0512 44.8594C66.3202 44.8594 60.8438 50.3357 60.8438 57.0668C60.8438 58.9653 62.3827 60.5043 64.2812 60.5043C66.1798 60.5043 67.7188 58.9653 67.7188 57.0668C67.7188 54.1265 70.1109 51.7344 73.0513 51.7344C75.9918 51.7344 78.3838 54.1265 78.3838 57.0668C78.3838 57.0981 78.3841 57.1292 78.385 57.1601C78.3496 59.2651 77.0851 61.1495 75.1427 61.9786C71.7841 63.4129 69.6138 66.7255 69.6138 70.4179V73.3906C69.6138 75.2892 71.1528 76.8281 73.0513 76.8281C74.9499 76.8281 76.4888 75.2892 76.4888 73.3906V70.4179C76.4888 69.4832 77.0203 68.6525 77.8424 68.3016C82.3501 66.3773 85.262 61.9671 85.2608 57.0661C85.2608 57.0194 85.2598 56.973 85.2579 56.9267Z" fill="#333333"/>
<path d="M73.0361 88C74.9346 88 76.4736 86.461 76.4736 84.5625C76.4736 82.664 74.9346 81.125 73.0361 81.125C71.1377 81.125 69.5986 82.664 69.5986 84.5625C69.5986 86.461 71.1377 88 73.0361 88Z" fill="#333333"/>
<path d="M21.9893 62.9062C23.8877 62.9062 25.4268 61.3672 25.4268 59.4688C25.4268 57.5703 23.8877 56.0312 21.9893 56.0312C20.0908 56.0312 18.5518 57.5703 18.5518 59.4688C18.5518 61.3672 20.0908 62.9062 21.9893 62.9062Z" fill="#333333"/>
</svg>
