<svg width="193" height="46" viewBox="0 0 193 46" fill="none" xmlns="http://www.w3.org/2000/svg">
<rect x="1" y="1.32373" width="191" height="44" rx="4.5" fill="white" stroke="#CF2D48"/>
<path d="M90.078 29.9317C89.118 29.9317 88.23 29.7757 87.414 29.4637C86.61 29.1397 85.908 28.6897 85.308 28.1137C84.72 27.5377 84.258 26.8597 83.922 26.0797C83.598 25.2997 83.436 24.4477 83.436 23.5237C83.436 22.5997 83.598 21.7477 83.922 20.9677C84.258 20.1877 84.726 19.5097 85.326 18.9337C85.926 18.3577 86.628 17.9137 87.432 17.6017C88.248 17.2777 89.136 17.1157 90.096 17.1157C91.056 17.1157 91.932 17.2657 92.724 17.5657C93.528 17.8657 94.212 18.3217 94.776 18.9337L93.948 19.7797C93.42 19.2517 92.838 18.8737 92.202 18.6457C91.566 18.4177 90.882 18.3037 90.15 18.3037C89.37 18.3037 88.65 18.4357 87.99 18.6997C87.342 18.9517 86.772 19.3177 86.28 19.7977C85.8 20.2657 85.422 20.8177 85.146 21.4537C84.882 22.0777 84.75 22.7677 84.75 23.5237C84.75 24.2677 84.882 24.9577 85.146 25.5937C85.422 26.2297 85.8 26.7877 86.28 27.2677C86.772 27.7357 87.342 28.1017 87.99 28.3657C88.65 28.6177 89.364 28.7437 90.132 28.7437C90.852 28.7437 91.53 28.6357 92.166 28.4197C92.814 28.2037 93.408 27.8377 93.948 27.3217L94.704 28.3297C94.104 28.8577 93.402 29.2597 92.598 29.5357C91.794 29.7997 90.954 29.9317 90.078 29.9317ZM93.426 28.1677V23.5237H94.704V28.3297L93.426 28.1677ZM102.056 29.9137C101.144 29.9137 100.322 29.7097 99.5899 29.3017C98.8699 28.8817 98.2999 28.3117 97.8799 27.5917C97.4599 26.8597 97.2499 26.0257 97.2499 25.0897C97.2499 24.1417 97.4599 23.3077 97.8799 22.5877C98.2999 21.8677 98.8699 21.3037 99.5899 20.8957C100.31 20.4877 101.132 20.2837 102.056 20.2837C102.992 20.2837 103.82 20.4877 104.54 20.8957C105.272 21.3037 105.842 21.8677 106.25 22.5877C106.67 23.3077 106.88 24.1417 106.88 25.0897C106.88 26.0257 106.67 26.8597 106.25 27.5917C105.842 28.3117 105.272 28.8817 104.54 29.3017C103.808 29.7097 102.98 29.9137 102.056 29.9137ZM102.056 28.7797C102.74 28.7797 103.346 28.6297 103.874 28.3297C104.402 28.0177 104.816 27.5857 105.116 27.0337C105.428 26.4697 105.584 25.8217 105.584 25.0897C105.584 24.3457 105.428 23.6977 105.116 23.1457C104.816 22.5937 104.402 22.1677 103.874 21.8677C103.346 21.5557 102.746 21.3997 102.074 21.3997C101.402 21.3997 100.802 21.5557 100.274 21.8677C99.7459 22.1677 99.3259 22.5937 99.0139 23.1457C98.7019 23.6977 98.5459 24.3457 98.5459 25.0897C98.5459 25.8217 98.7019 26.4697 99.0139 27.0337C99.3259 27.5857 99.7459 28.0177 100.274 28.3297C100.802 28.6297 101.396 28.7797 102.056 28.7797ZM113.341 29.9137C112.429 29.9137 111.607 29.7097 110.875 29.3017C110.155 28.8817 109.585 28.3117 109.165 27.5917C108.745 26.8597 108.535 26.0257 108.535 25.0897C108.535 24.1417 108.745 23.3077 109.165 22.5877C109.585 21.8677 110.155 21.3037 110.875 20.8957C111.595 20.4877 112.417 20.2837 113.341 20.2837C114.277 20.2837 115.105 20.4877 115.825 20.8957C116.557 21.3037 117.127 21.8677 117.535 22.5877C117.955 23.3077 118.165 24.1417 118.165 25.0897C118.165 26.0257 117.955 26.8597 117.535 27.5917C117.127 28.3117 116.557 28.8817 115.825 29.3017C115.093 29.7097 114.265 29.9137 113.341 29.9137ZM113.341 28.7797C114.025 28.7797 114.631 28.6297 115.159 28.3297C115.687 28.0177 116.101 27.5857 116.401 27.0337C116.713 26.4697 116.869 25.8217 116.869 25.0897C116.869 24.3457 116.713 23.6977 116.401 23.1457C116.101 22.5937 115.687 22.1677 115.159 21.8677C114.631 21.5557 114.031 21.3997 113.359 21.3997C112.687 21.3997 112.087 21.5557 111.559 21.8677C111.031 22.1677 110.611 22.5937 110.299 23.1457C109.987 23.6977 109.831 24.3457 109.831 25.0897C109.831 25.8217 109.987 26.4697 110.299 27.0337C110.611 27.5857 111.031 28.0177 111.559 28.3297C112.087 28.6297 112.681 28.7797 113.341 28.7797ZM124.806 33.4057C123.942 33.4057 123.114 33.2797 122.322 33.0277C121.53 32.7757 120.888 32.4157 120.396 31.9477L121.044 30.9757C121.488 31.3717 122.034 31.6837 122.682 31.9117C123.342 32.1517 124.038 32.2717 124.77 32.2717C125.97 32.2717 126.852 31.9897 127.416 31.4257C127.98 30.8737 128.262 30.0097 128.262 28.8337V26.4757L128.442 24.8557L128.316 23.2357V20.3737H129.54V28.6717C129.54 30.3037 129.138 31.4977 128.334 32.2537C127.542 33.0217 126.366 33.4057 124.806 33.4057ZM124.572 29.4637C123.672 29.4637 122.862 29.2717 122.142 28.8877C121.422 28.4917 120.852 27.9457 120.432 27.2497C120.024 26.5537 119.82 25.7557 119.82 24.8557C119.82 23.9557 120.024 23.1637 120.432 22.4797C120.852 21.7837 121.422 21.2437 122.142 20.8597C122.862 20.4757 123.672 20.2837 124.572 20.2837C125.412 20.2837 126.168 20.4577 126.84 20.8057C127.512 21.1537 128.046 21.6697 128.442 22.3537C128.838 23.0377 129.036 23.8717 129.036 24.8557C129.036 25.8397 128.838 26.6737 128.442 27.3577C128.046 28.0417 127.512 28.5637 126.84 28.9237C126.168 29.2837 125.412 29.4637 124.572 29.4637ZM124.698 28.3297C125.394 28.3297 126.012 28.1857 126.552 27.8977C127.092 27.5977 127.518 27.1897 127.83 26.6737C128.142 26.1457 128.298 25.5397 128.298 24.8557C128.298 24.1717 128.142 23.5717 127.83 23.0557C127.518 22.5397 127.092 22.1377 126.552 21.8497C126.012 21.5497 125.394 21.3997 124.698 21.3997C124.014 21.3997 123.396 21.5497 122.844 21.8497C122.304 22.1377 121.878 22.5397 121.566 23.0557C121.266 23.5717 121.116 24.1717 121.116 24.8557C121.116 25.5397 121.266 26.1457 121.566 26.6737C121.878 27.1897 122.304 27.5977 122.844 27.8977C123.396 28.1857 124.014 28.3297 124.698 28.3297ZM133.096 29.8237V16.4677H134.374V29.8237H133.096ZM141.944 29.9137C140.96 29.9137 140.096 29.7097 139.352 29.3017C138.608 28.8817 138.026 28.3117 137.606 27.5917C137.186 26.8597 136.976 26.0257 136.976 25.0897C136.976 24.1537 137.174 23.3257 137.57 22.6057C137.978 21.8857 138.53 21.3217 139.226 20.9137C139.934 20.4937 140.726 20.2837 141.602 20.2837C142.49 20.2837 143.276 20.4877 143.96 20.8957C144.656 21.2917 145.202 21.8557 145.598 22.5877C145.994 23.3077 146.192 24.1417 146.192 25.0897C146.192 25.1497 146.186 25.2157 146.174 25.2877C146.174 25.3477 146.174 25.4137 146.174 25.4857H137.948V24.5317H145.49L144.986 24.9097C144.986 24.2257 144.836 23.6197 144.536 23.0917C144.248 22.5517 143.852 22.1317 143.348 21.8317C142.844 21.5317 142.262 21.3817 141.602 21.3817C140.954 21.3817 140.372 21.5317 139.856 21.8317C139.34 22.1317 138.938 22.5517 138.65 23.0917C138.362 23.6317 138.218 24.2497 138.218 24.9457V25.1437C138.218 25.8637 138.374 26.4997 138.686 27.0517C139.01 27.5917 139.454 28.0177 140.018 28.3297C140.594 28.6297 141.248 28.7797 141.98 28.7797C142.556 28.7797 143.09 28.6777 143.582 28.4737C144.086 28.2697 144.518 27.9577 144.878 27.5377L145.598 28.3657C145.178 28.8697 144.65 29.2537 144.014 29.5177C143.39 29.7817 142.7 29.9137 141.944 29.9137Z" fill="#CF2D48"/>
<g clip-path="url(#clip0_478_9084)">
<path d="M50.6562 23.8238C50.6562 22.7338 50.9566 21.7127 51.4783 20.8384V17.1299H47.7697C46.2978 19.0415 45.5 21.3712 45.5 23.8238C45.5 26.2763 46.2978 28.6061 47.7697 30.5177H51.4783V26.8091C50.9566 25.9348 50.6562 24.9138 50.6562 23.8238Z" fill="#FBBD00"/>
<path d="M56.5 29.6677L53.9219 32.2458L56.5 34.8239C58.9526 34.8239 61.2823 34.0261 63.1939 32.5542V28.8496H59.4893C58.6074 29.3732 57.582 29.6677 56.5 29.6677Z" fill="#0F9D58"/>
<path d="M51.4783 26.8091L47.7697 30.5176C48.0612 30.8961 48.3785 31.2585 48.7218 31.6019C50.7995 33.6795 53.5618 34.8237 56.5 34.8237V29.6675C54.3677 29.6675 52.4989 28.5194 51.4783 26.8091Z" fill="#31AA52"/>
<path d="M67.5 23.824C67.5 23.1547 67.4394 22.4842 67.3199 21.8312L67.2232 21.3027H56.5V26.459H61.7186C61.2119 27.4671 60.4327 28.2895 59.4892 28.8497L63.1938 32.5543C63.5723 32.2629 63.9348 31.9455 64.2782 31.6022C66.3558 29.5245 67.5 26.7622 67.5 23.824Z" fill="#3C79E6"/>
<path d="M60.6322 19.6916L61.0879 20.1473L64.7339 16.5013L64.2782 16.0456C62.2006 13.9679 59.4382 12.8237 56.5 12.8237L53.9219 15.4019L56.5 17.98C58.0609 17.98 59.5284 18.5878 60.6322 19.6916Z" fill="#CF2D48"/>
<path d="M56.5 17.98V12.8237C53.5618 12.8237 50.7995 13.9679 48.7218 16.0455C48.3784 16.3889 48.0611 16.7513 47.7697 17.1298L51.4782 20.8384C52.4989 19.1281 54.3677 17.98 56.5 17.98Z" fill="#EB4132"/>
</g>
<defs>
<clipPath id="clip0_478_9084">
<rect width="22" height="22" fill="white" transform="translate(45.5 12.8237)"/>
</clipPath>
</defs>
</svg>
