<svg width="27" height="16" viewBox="0 0 27 16" fill="none" xmlns="http://www.w3.org/2000/svg">
<path fill-rule="evenodd" clip-rule="evenodd" d="M26.1193 0.78066C26.6269 1.28835 26.6269 2.11146 26.1193 2.61915L15.7192 13.0191C15.2116 13.5268 14.3884 13.5268 13.8808 13.0191L10.0596 9.19805C9.80579 8.94416 9.39423 8.94416 9.1404 9.19805L2.71925 15.6192C2.21156 16.1268 1.38845 16.1268 0.880757 15.6192C0.373081 15.1115 0.373081 14.2883 0.880757 13.7807L8.68077 5.98068C9.18846 5.47299 10.0116 5.47299 10.5193 5.98068L14.3403 9.80177C14.5942 10.0557 15.0058 10.0557 15.2597 9.80177L24.2808 0.78066C24.7885 0.272983 25.6116 0.272983 26.1193 0.78066Z" fill="#00BA00"/>
<path fill-rule="evenodd" clip-rule="evenodd" d="M18.7 1.6999C18.7 0.981939 19.282 0.399902 20 0.399902H25.2C25.918 0.399902 26.5 0.981939 26.5 1.6999V6.89991C26.5 7.6179 25.918 8.19991 25.2 8.19991C24.482 8.19991 23.9 7.6179 23.9 6.89991V3.64991C23.9 3.29092 23.6089 2.99991 23.25 2.99991H20C19.282 2.99991 18.7 2.41787 18.7 1.6999Z" fill="#58CC02"/>
</svg>
