<svg width="51" height="47" viewBox="0 0 51 47" fill="none" xmlns="http://www.w3.org/2000/svg">
<path d="M37.575 46.9298C37.1766 46.9298 36.7696 46.8792 36.3665 46.7738L3.75953 38.042C1.24415 37.3482 -0.255049 34.7463 0.402851 32.2328L3.98733 18.4872C4.20663 17.6436 5.06916 17.1312 5.91663 17.3571C6.76024 17.5764 7.26834 18.4409 7.04711 19.2864L3.46224 33.0344C3.24101 33.8818 3.74486 34.7567 4.58847 34.9888L37.1766 43.7164C38.0136 43.9376 38.8781 43.4399 39.0974 42.6071L40.2105 38.1157C40.4217 37.2682 41.2776 36.7536 42.1251 36.9605C42.973 37.1713 43.4896 38.0273 43.2807 38.8748L42.1633 43.3874C41.6 45.5233 39.6773 46.9298 37.575 46.9298Z" fill="#333333"/>
<path d="M46.1071 34.2795H13.424C10.8074 34.2795 8.67969 32.1517 8.67969 29.5352V5.28629C8.67969 2.66975 10.8074 0.541992 13.424 0.541992H46.1071C48.7236 0.541992 50.8514 2.66975 50.8514 5.28629V29.5352C50.8514 32.1517 48.7236 34.2795 46.1071 34.2795ZM13.424 3.70486C12.551 3.70486 11.8426 4.41334 11.8426 5.28629V29.5352C11.8426 30.4081 12.551 31.1166 13.424 31.1166H46.1071C46.98 31.1166 47.6885 30.4081 47.6885 29.5352V5.28629C47.6885 4.41334 46.98 3.70486 46.1071 3.70486H13.424Z" fill="#333333"/>
<path d="M19.2251 15.3027C16.8993 15.3027 15.0078 13.4113 15.0078 11.0854C15.0078 8.75963 16.8993 6.86816 19.2251 6.86816C21.5509 6.86816 23.442 8.75963 23.442 11.0854C23.442 13.4113 21.5509 15.3027 19.2251 15.3027ZM19.2251 10.031C18.6429 10.031 18.1707 10.5036 18.1707 11.0854C18.1707 11.6673 18.6429 12.1399 19.2251 12.1399C19.8069 12.1399 20.2791 11.6673 20.2791 11.0854C20.2791 10.5036 19.8069 10.031 19.2251 10.031Z" fill="#333333"/>
<path d="M10.3053 32.1294C9.90065 32.1294 9.49564 31.9753 9.18792 31.6657C8.57017 31.0479 8.57017 30.046 9.18792 29.4283L18.7186 19.8976C20.161 18.4552 22.5077 18.4552 23.9478 19.8976L26.4972 22.447L34.3283 13.0468C35.0283 12.2074 36.0553 11.7225 37.1456 11.7163C38.3178 11.6511 39.2668 12.1843 39.973 13.0132L50.4696 25.2597C51.0387 25.9218 50.9608 26.9214 50.2986 27.4905C49.6345 28.06 48.6372 27.982 48.0678 27.3198L37.5672 15.0691C37.4278 14.9024 37.2572 14.9108 37.1622 14.8811C37.0719 14.8811 36.8966 14.9085 36.7576 15.073L27.8172 25.806C27.5323 26.1473 27.1173 26.3542 26.6744 26.3731C26.2231 26.3982 25.7972 26.2253 25.4849 25.9114L21.7108 22.1369C21.4429 21.869 21.2216 21.869 20.9537 22.1369L11.423 31.6657C11.1149 31.9753 10.7103 32.1294 10.3053 32.1294Z" fill="#333333"/>
</svg>
