<svg width="24" height="25" viewBox="0 0 24 25" fill="none" xmlns="http://www.w3.org/2000/svg">
<g clip-path="url(#clip0_478_8040)">
<path d="M20.7273 0.471436H3.27273C1.46525 0.471436 0 1.93669 0 3.74416V21.1987C0 23.0062 1.46525 24.4714 3.27273 24.4714H20.7273C22.5347 24.4714 24 23.0062 24 21.1987V3.74416C24 1.93669 22.5347 0.471436 20.7273 0.471436Z" fill="#4EB3EA"/>
<path d="M8.6456 7.01689C8.6456 7.42144 8.52563 7.81691 8.30088 8.15328C8.07612 8.48966 7.75666 8.75183 7.3829 8.90664C7.00915 9.06146 6.59787 9.10197 6.20109 9.02304C5.80432 8.94412 5.43985 8.74931 5.15379 8.46324C4.86773 8.17718 4.67292 7.81272 4.59399 7.41594C4.51507 7.01916 4.55557 6.60789 4.71039 6.23413C4.8652 5.86037 5.12738 5.54091 5.46375 5.31616C5.80012 5.0914 6.19559 4.97144 6.60014 4.97144C7.14263 4.97144 7.6629 5.18694 8.0465 5.57054C8.4301 5.95413 8.6456 6.4744 8.6456 7.01689Z" fill="white"/>
<path d="M8.18179 10.426V19.4628C8.18215 19.5295 8.16933 19.5955 8.14406 19.6572C8.1188 19.7189 8.08159 19.775 8.03458 19.8223C7.98757 19.8696 7.93167 19.9071 7.87011 19.9327C7.80856 19.9583 7.74255 19.9714 7.67588 19.9714H5.51997C5.4533 19.9716 5.38726 19.9586 5.32563 19.9332C5.26401 19.9078 5.20801 19.8704 5.16087 19.8233C5.11373 19.7761 5.07637 19.7201 5.05094 19.6585C5.02552 19.5969 5.01252 19.5308 5.0127 19.4642V10.426C5.0127 10.2914 5.06614 10.1624 5.16127 10.0673C5.25641 9.97215 5.38543 9.9187 5.51997 9.9187H7.67588C7.81018 9.91906 7.93886 9.97267 8.03369 10.0678C8.12853 10.1629 8.18179 10.2917 8.18179 10.426Z" fill="white"/>
<path d="M19.4507 15.1305V19.505C19.4509 19.5663 19.439 19.6271 19.4156 19.6837C19.3922 19.7404 19.3579 19.7919 19.3145 19.8352C19.2712 19.8786 19.2197 19.9129 19.1631 19.9363C19.1064 19.9596 19.0457 19.9716 18.9844 19.9714H16.6662C16.6049 19.9716 16.5442 19.9596 16.4875 19.9363C16.4308 19.9129 16.3794 19.8786 16.336 19.8352C16.2927 19.7919 16.2583 19.7404 16.235 19.6837C16.2116 19.6271 16.1997 19.5663 16.1998 19.505V15.2655C16.1998 14.6328 16.3853 12.4946 14.5457 12.4946C13.1207 12.4946 12.8303 13.9578 12.773 14.615V19.505C12.773 19.6276 12.7248 19.7452 12.6388 19.8324C12.5528 19.9197 12.436 19.9696 12.3135 19.9714H10.0744C10.0132 19.9714 9.95262 19.9593 9.89611 19.9359C9.83961 19.9124 9.78829 19.878 9.74509 19.8347C9.70189 19.7914 9.66767 19.74 9.64438 19.6834C9.62109 19.6268 9.6092 19.5662 9.60938 19.505V10.3864C9.6092 10.3252 9.62109 10.2646 9.64438 10.208C9.66767 10.1515 9.70189 10.1 9.74509 10.0567C9.78829 10.0134 9.83961 9.97902 9.89611 9.95557C9.95262 9.93211 10.0132 9.92004 10.0744 9.92004H12.3135C12.4372 9.92004 12.5558 9.96917 12.6432 10.0566C12.7307 10.1441 12.7798 10.2627 12.7798 10.3864V11.1746C13.3089 10.3809 14.093 9.76868 15.7662 9.76868C19.4726 9.76868 19.4507 13.2296 19.4507 15.1305Z" fill="white"/>
</g>
<defs>
<clipPath id="clip0_478_8040">
<rect width="24" height="24" fill="white" transform="translate(0 0.471436)"/>
</clipPath>
</defs>
</svg>
