<svg width="19" height="19" viewBox="0 0 19 19" fill="none" xmlns="http://www.w3.org/2000/svg">
<g clip-path="url(#clip0_478_3876)">
<path d="M9.70112 0.199219C4.73057 0.199219 0.701172 4.22862 0.701172 9.19916C0.701172 14.1697 4.73057 18.1993 9.70112 18.1993C14.6717 18.1993 18.7012 14.1697 18.7012 9.19916C18.6956 4.23093 14.6695 0.204822 9.70112 0.199219ZM9.70112 17.2992C5.22759 17.2992 1.60112 13.6727 1.60112 9.19916C1.60112 4.72564 5.22759 1.09916 9.70112 1.09916C14.1746 1.09916 17.8011 4.72564 17.8011 9.19916C17.796 13.6705 14.1725 17.2941 9.70112 17.2992Z" fill="#333333"/>
<path d="M8.6474 5.71038C8.4602 5.54674 8.17593 5.56586 8.01228 5.7529C7.84881 5.94011 7.86792 6.22438 8.05497 6.38802L11.2678 9.19909L8.0548 12.0103C7.86759 12.174 7.84864 12.4582 8.01212 12.6453C8.17576 12.8325 8.46003 12.8516 8.64724 12.688L12.2472 9.53791C12.3449 9.45255 12.4009 9.32895 12.4009 9.19909C12.4009 9.06923 12.3449 8.9458 12.2472 8.86027L8.6474 5.71038Z" fill="#333333"/>
</g>
<defs>
<clipPath id="clip0_478_3876">
<rect width="18" height="18" fill="white" transform="translate(0.701172 0.199219)"/>
</clipPath>
</defs>
</svg>
