<svg width="25" height="24" viewBox="0 0 25 24" fill="none" xmlns="http://www.w3.org/2000/svg">
<path d="M12.137 5.88893e-08C11.9908 -5.7755e-05 11.8475 0.0426804 11.7233 0.123395C11.5991 0.20411 11.4989 0.31959 11.4339 0.456814L8.15157 7.4302L0.810385 8.54685C0.665259 8.5686 0.528852 8.63252 0.416633 8.73139C0.304414 8.83025 0.220876 8.96009 0.175494 9.10619C0.130112 9.25228 0.124703 9.40878 0.159879 9.55794C0.195054 9.70709 0.269408 9.84293 0.374507 9.95005L5.68784 15.3762L4.43333 23.0372C4.40824 23.1886 4.42413 23.3443 4.4792 23.4867C4.53427 23.6291 4.62632 23.7525 4.7449 23.8428C4.86349 23.9332 5.00386 23.9869 5.15009 23.9979C5.29632 24.0089 5.44257 23.9767 5.57223 23.905L12.137 20.2865L18.7033 23.905C18.8329 23.9762 18.9789 24.0081 19.1249 23.9969C19.2709 23.9856 19.4109 23.9319 19.5293 23.8416C19.6476 23.7513 19.7395 23.6281 19.7945 23.486C19.8495 23.3438 19.8655 23.1884 19.8406 23.0372L18.5861 15.3762L23.8994 9.95005C24.0045 9.84293 24.0789 9.70709 24.114 9.55794C24.1492 9.40878 24.1438 9.25228 24.0984 9.10619C24.053 8.96009 23.9695 8.83025 23.8573 8.73139C23.7451 8.63252 23.6087 8.5686 23.4635 8.54685L16.1239 7.4302L12.84 0.456814C12.7751 0.31959 12.6748 0.204109 12.5506 0.123394C12.4264 0.0426796 12.2831 -5.79081e-05 12.137 5.88893e-08Z" fill="#333333"/>
</svg>
