<svg width="25" height="24" viewBox="0 0 25 24" fill="none" xmlns="http://www.w3.org/2000/svg">
<path d="M20.6725 12.957H18.8164C19.0056 13.5676 19.109 14.2266 19.109 14.9134V23.1829C19.109 23.4693 19.0667 23.7442 18.9898 23.9998H22.0582C23.2045 23.9998 24.137 22.9005 24.137 21.5493V17.0412C24.137 14.7892 22.5828 12.957 20.6725 12.957Z" fill="#333333"/>
<path d="M5.16502 14.9134C5.16502 14.2266 5.26838 13.5676 5.45757 12.957H3.6015C1.69115 12.957 0.136963 14.7892 0.136963 17.0412V21.5493C0.136963 22.9005 1.06945 23.9998 2.21569 23.9998H5.28422C5.2073 23.7441 5.16502 23.4693 5.16502 23.1829V14.9134Z" fill="#333333"/>
<path d="M14.2585 10.8296H10.0153C8.10497 10.8296 6.55078 12.6618 6.55078 14.9138V23.1833C6.55078 23.6344 6.861 24.0001 7.24369 24.0001H17.0302C17.4129 24.0001 17.7231 23.6344 17.7231 23.1833V14.9138C17.7231 12.6618 16.1689 10.8296 14.2585 10.8296Z" fill="#333333"/>
<path d="M12.137 0C9.83956 0 7.97046 2.2034 7.97046 4.91181C7.97046 6.7489 8.83057 8.35335 10.1008 9.19572C10.7033 9.59524 11.3979 9.82357 12.137 9.82357C12.8761 9.82357 13.5707 9.59524 14.1732 9.19572C15.4435 8.35335 16.3035 6.74884 16.3035 4.91181C16.3035 2.20345 14.4344 0 12.137 0Z" fill="#333333"/>
<path d="M4.82061 4.57812C3.1024 4.57812 1.70459 6.22595 1.70459 8.25147C1.70459 10.277 3.1024 11.9248 4.82061 11.9248C5.25646 11.9248 5.67149 11.8184 6.0485 11.6271C6.70035 11.2962 7.23782 10.7106 7.5704 9.97705C7.80384 9.4622 7.93663 8.87485 7.93663 8.25147C7.93663 6.22601 6.53882 4.57812 4.82061 4.57812Z" fill="#333333"/>
<path d="M19.4533 4.57812C17.7351 4.57812 16.3373 6.22595 16.3373 8.25147C16.3373 8.8749 16.4701 9.46225 16.7035 9.97705C17.0361 10.7107 17.5736 11.2963 18.2254 11.6271C18.6024 11.8184 19.0175 11.9248 19.4533 11.9248C21.1715 11.9248 22.5693 10.277 22.5693 8.25147C22.5693 6.22595 21.1715 4.57812 19.4533 4.57812Z" fill="#333333"/>
</svg>
