<svg width="25" height="24" viewBox="0 0 25 24" fill="none" xmlns="http://www.w3.org/2000/svg">
<path d="M10.6298 22.5581C10.3283 22.5581 10.0831 22.7879 10.0831 23.0704V23.4878C10.0831 23.7702 10.3284 24 10.6298 24H13.7222C14.0236 24 14.2688 23.7702 14.2688 23.4878V23.0704C14.2688 22.7879 14.0236 22.5581 13.7222 22.5581H10.6298Z" fill="#333333"/>
<path d="M9.69728 20.2354C9.39583 20.2354 9.15063 20.4651 9.15063 20.7476V21.165C9.15063 21.4474 9.39589 21.6772 9.69728 21.6772H14.6545C14.956 21.6772 15.2012 21.4474 15.2012 21.165V20.7476C15.2012 20.4651 14.9559 20.2354 14.6545 20.2354H9.69728Z" fill="#333333"/>
<path d="M10.0832 12.5752H9.84026C9.4718 12.5752 9.17212 12.8567 9.17212 13.2026C9.17212 13.5485 9.47185 13.83 9.84026 13.83H10.7514V13.2026C10.7514 12.8567 10.4516 12.5752 10.0832 12.5752Z" fill="#333333"/>
<path d="M16.35 16.1051C17.7508 14.9554 18.5542 13.3054 18.5542 11.5783C18.5542 8.19771 15.8121 5.64844 12.1759 5.64844C8.53967 5.64844 5.79761 8.19771 5.79761 11.5783C5.79761 13.3054 6.60097 14.9554 8.00175 16.1051C8.99867 16.9234 9.63328 18.0404 9.85297 19.3546H10.7513V14.7106H9.84022C8.96524 14.7106 8.25338 14.034 8.25338 13.2025C8.25338 12.3709 8.96524 11.6943 9.84022 11.6943C9.84022 11.6943 11.774 11.5254 11.67 13.2025V13.8299H12.7147V13.2025C12.7147 11.5639 14.5594 11.6943 14.5594 11.6943C15.4344 11.6943 16.1462 12.3709 16.1462 13.2025C16.1462 14.0341 15.4344 14.7106 14.5594 14.7106H13.6334V19.3546H14.4988C14.7184 18.0404 15.3531 16.9234 16.35 16.1051Z" fill="#333333"/>
<path d="M23.7203 10.1884H21.8904C21.666 10.1884 21.4744 10.0329 21.4374 9.82059C21.2468 8.72731 20.7679 7.59321 20.0525 6.54086C19.9338 6.36624 19.959 6.13578 20.113 5.9886L21.4046 4.75363C21.5788 4.58712 21.5278 4.36409 21.426 4.21317L19.8954 2.69938C19.7215 2.53533 19.4898 2.58282 19.3318 2.67933L18.0706 3.88502C17.9145 4.0344 17.6696 4.05615 17.4874 3.93697C16.4826 3.27963 15.3115 2.80476 14.1008 2.56358C13.8876 2.52112 13.7349 2.34112 13.7349 2.13246V0.382922C13.7349 0.153846 13.5549 0 13.3869 0H11.1596C11.0077 0.025282 10.7785 0.129692 10.7785 0.382922V2.18389C10.7785 2.39923 10.616 2.58302 10.3944 2.6183C9.25049 2.80061 8.06394 3.25861 6.96299 3.94276C6.78133 4.05568 6.54208 4.03163 6.38881 3.88507L5.09715 2.6501C4.92181 2.48251 4.68711 2.53164 4.52832 2.62964L2.94491 4.09312C2.7745 4.2584 2.82384 4.4784 2.92407 4.62861L4.18509 5.83424C4.34195 5.98419 4.36482 6.22009 4.23952 6.39517C3.5522 7.35563 3.05559 8.47496 2.80343 9.63224C2.75891 9.83634 2.57125 9.98254 2.3538 9.98254H0.557118C0.405243 10.0078 0.175903 10.1122 0.175903 10.3655V12.4946C0.202421 12.6395 0.311868 12.8582 0.57769 12.8582H2.40753C2.632 12.8582 2.82357 13.0137 2.86059 13.226C3.0512 14.3193 3.53007 15.4534 4.24552 16.5057C4.36423 16.6803 4.339 16.9108 4.18504 17.058L2.89332 18.2929C2.71916 18.4594 2.77016 18.6825 2.872 18.8334L4.40254 20.3472C4.57654 20.5112 4.80824 20.4636 4.96622 20.3672L6.22729 19.1615C6.38345 19.0122 6.62844 18.9904 6.81052 19.1096C7.32454 19.4458 7.88426 19.735 8.47917 19.972C8.60174 19.7969 8.76428 19.6523 8.95307 19.5468C8.77553 18.4184 8.24485 17.4644 7.40426 16.7745C5.79936 15.4571 4.8789 13.5634 4.8789 11.5786C4.8789 9.71906 5.62488 7.99773 6.97944 6.73173C8.33442 5.46532 10.1799 4.76794 12.1759 4.76794C14.172 4.76794 16.0174 5.46532 17.3723 6.73163C18.7269 7.99762 19.4729 9.71895 19.4729 11.5785C19.4729 13.5633 18.5524 15.4571 16.9475 16.7744C16.1068 17.4644 15.5761 18.4186 15.3986 19.5472C15.5612 19.6382 15.7047 19.7584 15.82 19.9025C16.355 19.687 16.8812 19.4192 17.3888 19.1038C17.5683 18.9922 17.8117 19.0167 17.963 19.1614L19.2547 20.3964C19.43 20.564 19.6648 20.5149 19.8235 20.4169L21.4068 18.9535C21.5773 18.7882 21.528 18.5681 21.4278 18.4179L20.1668 17.2123C20.0099 17.0623 19.987 16.8264 20.1123 16.6513C20.7997 15.6909 21.2963 14.5716 21.5484 13.4143C21.593 13.2102 21.7806 13.064 21.9981 13.064H23.7947C23.9466 13.0387 24.1759 12.9343 24.1759 12.681V10.5519C24.1561 10.4426 24.072 10.1884 23.7203 10.1884Z" fill="#333333"/>
<path d="M15.2276 13.2026C15.2276 12.8566 14.9279 12.5752 14.5595 12.5752H14.3016C13.9331 12.5752 13.6334 12.8567 13.6334 13.2026V13.83H14.5595C14.9279 13.83 15.2276 13.5485 15.2276 13.2026Z" fill="#333333"/>
<path d="M11.67 14.7109H12.7147V19.3549H11.67V14.7109Z" fill="#333333"/>
</svg>
