<svg width="17" height="21" viewBox="0 0 17 21" fill="none" xmlns="http://www.w3.org/2000/svg">
<path d="M14.6646 7.87488H13.9979V5.24988C13.9979 2.3545 11.6059 -0.00012207 8.66455 -0.00012207C5.72322 -0.00012207 3.33122 2.3545 3.33122 5.24988V7.87488H2.66455C1.56233 7.87488 0.664551 8.75775 0.664551 9.84363V19.0311C0.664551 20.117 1.56233 20.9999 2.66455 20.9999H14.6646C15.7668 20.9999 16.6646 20.117 16.6646 19.0311V9.84363C16.6646 8.75775 15.7668 7.87488 14.6646 7.87488ZM5.109 5.24988C5.109 3.31963 6.70366 1.74988 8.66455 1.74988C10.6254 1.74988 12.2201 3.31963 12.2201 5.24988V7.87488H5.109V5.24988ZM9.55344 14.6316V16.6249C9.55344 17.1079 9.15611 17.4999 8.66455 17.4999C8.173 17.4999 7.77566 17.1079 7.77566 16.6249V14.6316C7.24677 14.328 6.88677 13.7698 6.88677 13.1249C6.88677 12.1598 7.68411 11.3749 8.66455 11.3749C9.645 11.3749 10.4423 12.1598 10.4423 13.1249C10.4423 13.7698 10.0823 14.328 9.55344 14.6316Z" fill="#333333"/>
</svg>
