<svg width="29" height="26" viewBox="0 0 29 26" fill="none" xmlns="http://www.w3.org/2000/svg">
<path d="M18.2947 26C17.9877 26 17.6931 25.9068 17.4426 25.7311L14.5533 23.7097L11.6632 25.7315C11.2835 25.997 10.7936 26.0693 10.3532 25.9273C9.91285 25.7841 9.5597 25.4374 9.40836 24.9996L8.25914 21.6648L4.73369 21.6007C4.27067 21.5917 3.83202 21.363 3.5601 20.9893C3.28776 20.6139 3.20568 20.1257 3.34035 19.6836L4.36686 16.3095L1.55368 14.1842C1.18429 13.9055 0.964111 13.4625 0.964111 12.9995C0.964111 12.5365 1.18472 12.0936 1.55411 11.8148L4.36686 9.68911L3.34035 6.315C3.20568 5.87251 3.28776 5.38426 3.5601 5.00974C3.83244 4.63522 4.27109 4.40649 4.73412 4.39836L8.25957 4.33381L9.40921 0.999889C9.56013 0.561665 9.9137 0.214507 10.3545 0.0717104C10.7944 -0.0706588 11.2848 0.0011671 11.664 0.267521L14.5533 2.28976L17.443 0.267521C17.8248 0.00202218 18.3135 -0.0710864 18.7538 0.0721379C19.1938 0.214935 19.5469 0.562093 19.6983 0.999889L20.8475 4.33423L24.3729 4.39879C24.8355 4.40734 25.2742 4.63565 25.5469 5.00974C25.8197 5.38512 25.9014 5.87336 25.7663 6.31586L24.7406 9.68911L27.5525 11.8144C27.9219 12.0931 28.1429 12.5361 28.1429 12.9991C28.1429 13.4621 27.9223 13.905 27.5525 14.1838L24.7402 16.3095L25.7663 19.6836C25.9014 20.1257 25.8193 20.6139 25.5465 20.9889C25.2746 21.363 24.8364 21.5917 24.3734 21.6007L20.8475 21.6648L19.6983 24.9991C19.5469 25.4369 19.1933 25.7841 18.7534 25.9273C18.6046 25.9756 18.4507 26 18.2947 26ZM10.8115 1.28206C10.7906 1.28206 10.7696 1.28548 10.7491 1.2919C10.6892 1.31113 10.6414 1.35859 10.6208 1.41802L9.32499 5.17605C9.23734 5.43086 8.99963 5.60359 8.73028 5.60829L4.75635 5.68097C4.6935 5.68225 4.63364 5.71346 4.59645 5.76434C4.55925 5.81564 4.54814 5.88191 4.56652 5.94219L5.72343 9.74469C5.80167 10.0021 5.71103 10.2808 5.49641 10.4429L2.32624 12.8388C2.27579 12.8768 2.24586 12.9371 2.24586 12.9999C2.24586 13.0628 2.27579 13.1235 2.32624 13.1611L5.49641 15.557C5.71103 15.7191 5.80167 15.9978 5.72343 16.2552L4.56652 20.0577C4.54814 20.118 4.55925 20.1847 4.59688 20.236C4.63364 20.2864 4.6935 20.3172 4.75677 20.3185L8.73028 20.3912C8.99963 20.3963 9.23734 20.569 9.32499 20.8234L10.6204 24.5814C10.6409 24.6413 10.6893 24.6883 10.7495 24.708C10.809 24.7272 10.8757 24.7178 10.9274 24.6811L14.1856 22.4014C14.4067 22.2471 14.7 22.2471 14.921 22.4014L18.1788 24.6806C18.2305 24.7174 18.2998 24.7251 18.3579 24.7076C18.4174 24.6879 18.4657 24.6409 18.4862 24.5806L19.7816 20.823C19.8693 20.5686 20.107 20.3959 20.3763 20.3907L24.3503 20.3181C24.4131 20.3168 24.473 20.286 24.5097 20.2351C24.5478 20.1834 24.5585 20.1188 24.5401 20.0577L23.3832 16.2548C23.3045 15.9974 23.3952 15.7186 23.6098 15.5566L26.78 13.1607C26.8304 13.1226 26.8603 13.0624 26.8603 12.9995C26.8603 12.9367 26.8304 12.8764 26.78 12.8388L26.7795 12.8383L23.6098 10.4424C23.3952 10.2804 23.3045 10.0016 23.3828 9.74426L24.5392 5.94177C24.5581 5.88106 24.5469 5.81479 24.5097 5.76348C24.4726 5.71218 24.414 5.68183 24.3498 5.68054L20.3759 5.60786C20.1066 5.60316 19.8689 5.43043 19.7812 5.17562L18.4858 1.41759C18.4653 1.35816 18.4169 1.31071 18.3567 1.29147C18.2968 1.2718 18.2297 1.28206 18.1775 1.3184L14.9206 3.59759C14.6995 3.75193 14.4062 3.75193 14.1852 3.59759L10.9274 1.31797C10.8936 1.29446 10.8526 1.28206 10.8115 1.28206Z" fill="#1597C5"/>
<path d="M4.35869 18.4258L4.17926 20.6861L8.62835 21.0808L9.20241 22.48L10.8528 25.4939L14.4048 23.0541L18.5668 25.4939L20.7195 20.6861L24.9174 20.2914L24.0563 15.8783L25.5273 15.1608L27.5365 12.9004L24.0563 9.52778L24.9174 5.04292L20.5043 4.82765L19.8584 3.67953L18.2439 0.522186L14.656 3.06959L11.4628 0.522186L9.70472 1.06036L8.62835 5.04292L3.85646 5.36583L4.9328 9.92245L1.48853 12.6493L2.67243 14.0844L4.9328 15.8783L4.35869 18.4258Z" fill="#1597C5"/>
<path d="M10.5061 11.9811C10.4864 11.9298 10.4556 11.8875 10.4129 11.8541C10.3701 11.8216 10.3158 11.802 10.2517 11.796C10.197 11.7908 10.1333 11.7973 10.0559 11.8169C9.99261 11.8327 9.91694 11.8567 9.8263 11.89C9.73053 11.9251 9.654 11.9572 9.59586 11.9862C9.52873 12.0191 9.47401 12.0555 9.43254 12.094C9.38337 12.1406 9.35216 12.188 9.33805 12.2359C9.31924 12.2936 9.32053 12.3548 9.3419 12.4103L10.1705 14.6652C10.2192 14.7977 10.2714 14.9349 10.3261 15.0769C10.2397 14.9935 10.1517 14.9097 10.061 14.8268L8.20509 13.1624C8.11659 13.0773 8.03493 13.0085 7.96096 12.955C7.87845 12.8969 7.79594 12.855 7.71513 12.8315C7.63219 12.8079 7.54583 12.7998 7.45391 12.8097C7.37097 12.8191 7.27605 12.843 7.17173 12.8819L6.648 13.0743C6.51504 13.123 6.41457 13.2064 6.35001 13.3214C6.28032 13.4441 6.27519 13.5869 6.33377 13.7468L7.92163 18.0662C7.94087 18.1184 7.97293 18.1633 8.01355 18.194C8.05844 18.2287 8.11402 18.2475 8.18414 18.2513C8.1914 18.2518 8.1991 18.2522 8.2068 18.2522C8.2534 18.2522 8.30769 18.2449 8.37097 18.2304C8.43553 18.2158 8.51505 18.191 8.60953 18.1568C8.70573 18.1209 8.78311 18.088 8.84169 18.0572C8.90838 18.0226 8.95969 17.9888 8.99774 17.9538C9.04947 17.9063 9.08111 17.8567 9.09436 17.8037C9.10804 17.7498 9.10505 17.693 9.08538 17.6395L8.16148 15.1252C8.11616 15.0008 8.06999 14.8794 8.02381 14.7601C8.0935 14.8272 8.16191 14.8909 8.2286 14.952L10.2478 16.7571C10.3599 16.8623 10.4569 16.9461 10.5377 17.0081C10.6292 17.0782 10.7151 17.1278 10.7989 17.1585C10.8892 17.1923 10.9815 17.2056 11.0743 17.1987C11.1581 17.1915 11.2479 17.1701 11.3483 17.1329L11.7639 16.9803C11.8246 16.9576 11.8823 16.9268 11.9349 16.8871C11.9926 16.8439 12.0388 16.7904 12.0713 16.7293C12.1038 16.6694 12.1226 16.6015 12.1286 16.5258C12.1329 16.4527 12.1209 16.377 12.0927 16.3009L10.5061 11.9811Z" fill="white"/>
<path d="M16.4029 14.8294C16.3743 14.7507 16.3456 14.6853 16.32 14.6344C16.2892 14.5758 16.258 14.5297 16.2268 14.4959C16.1853 14.4506 16.1387 14.4198 16.0861 14.404C16.0318 14.3881 15.9745 14.3907 15.9232 14.4095L14.3345 14.9931L13.9407 13.9221L15.2515 13.4403C15.3028 13.4211 15.346 13.3873 15.3738 13.3475C15.4063 13.3048 15.4243 13.2509 15.4277 13.188C15.4307 13.1402 15.4251 13.0859 15.4106 13.0209C15.3982 12.9674 15.3777 12.9007 15.349 12.8221C15.3212 12.7455 15.2934 12.6823 15.2669 12.6305C15.2357 12.5707 15.2041 12.5249 15.1716 12.4916C15.1314 12.4488 15.0861 12.4202 15.0309 12.4035C14.9762 12.389 14.9215 12.3915 14.8719 12.4104L13.5615 12.8918L13.2344 12.0025L14.8082 11.424C14.8616 11.4039 14.9061 11.3685 14.9377 11.3172C14.9638 11.2744 14.9779 11.2222 14.9801 11.1649C14.9822 11.1162 14.9758 11.0611 14.9608 10.9961C14.948 10.9405 14.9279 10.8747 14.9001 10.7977C14.8698 10.716 14.8415 10.6506 14.8159 10.601C14.786 10.5429 14.7552 10.4963 14.7227 10.4608C14.6804 10.4138 14.6342 10.3826 14.5812 10.3667C14.5286 10.3526 14.4739 10.3552 14.423 10.3744L12.0237 11.2564C11.9074 11.2992 11.8197 11.3723 11.7641 11.4728C11.7039 11.5809 11.7013 11.7131 11.7573 11.8653L13.2973 16.0547C13.3529 16.2064 13.4397 16.3056 13.5551 16.3492C13.6081 16.3693 13.6624 16.3796 13.718 16.3796C13.7757 16.3796 13.8343 16.3685 13.8941 16.3467L16.3084 15.4591C16.3614 15.4399 16.4059 15.4044 16.4367 15.3569C16.4657 15.3125 16.4816 15.2586 16.4841 15.1992C16.4863 15.1513 16.4803 15.0961 16.4653 15.0303C16.4521 14.9751 16.432 14.908 16.4029 14.8294Z" fill="white"/>
<path d="M22.3738 8.23332C22.361 8.12259 22.3456 8.03709 22.3276 7.97723C22.2921 7.85538 22.2207 7.7998 22.1664 7.77458C22.0972 7.74251 22.0121 7.73867 21.915 7.76389C21.8484 7.78099 21.7577 7.81006 21.6427 7.85239C21.5204 7.89771 21.4268 7.93576 21.3618 7.9674C21.2831 8.00502 21.225 8.0435 21.1831 8.0854C21.113 8.15594 21.0955 8.22905 21.0938 8.27565C21.0912 8.31969 21.0942 8.36757 21.1023 8.41674L21.5303 11.7844L19.6299 8.97895C19.5931 8.91952 19.5555 8.87334 19.5127 8.83786C19.4597 8.79382 19.3909 8.7686 19.3139 8.76518C19.2494 8.75962 19.1792 8.7733 19.0903 8.79938C19.0151 8.82118 18.9167 8.85496 18.7928 8.89985C18.6756 8.94303 18.5841 8.98066 18.5153 9.01315C18.4358 9.05163 18.3755 9.0901 18.3336 9.12987C18.2754 9.18288 18.2395 9.24829 18.2293 9.31841C18.2216 9.37014 18.2229 9.42871 18.2323 9.48728L18.6243 12.8315L16.7812 10.0025C16.7483 9.94475 16.7175 9.90157 16.6846 9.86907C16.6337 9.82033 16.5683 9.79468 16.4901 9.7934C16.4234 9.79297 16.3656 9.80409 16.2784 9.83102C16.207 9.85283 16.1113 9.88575 15.9924 9.92978C15.8612 9.97767 15.7594 10.0191 15.688 10.0525C15.5888 10.0995 15.5225 10.1555 15.4853 10.2235C15.4554 10.2791 15.4298 10.3706 15.4794 10.486C15.5037 10.545 15.5461 10.6181 15.6089 10.7105L18.2412 14.5023C18.2883 14.5694 18.3336 14.6203 18.381 14.6575C18.443 14.7062 18.5204 14.731 18.6106 14.7319H18.614C18.6829 14.7319 18.7667 14.7177 18.8697 14.6887C18.9604 14.6626 19.0788 14.6224 19.2271 14.5681C19.3674 14.5164 19.4798 14.4715 19.5623 14.4343C19.656 14.3915 19.7312 14.3458 19.7851 14.2962C19.8496 14.2368 19.8902 14.1684 19.9052 14.094C19.9185 14.0324 19.9193 13.9636 19.9082 13.8862L19.5875 11.1675L21.1339 13.4304C21.178 13.5018 21.2242 13.5553 21.2746 13.5942C21.3374 13.6425 21.414 13.6673 21.5038 13.6677C21.5572 13.6613 21.6594 13.654 21.762 13.625C21.8531 13.5993 21.9706 13.5591 22.1168 13.5057C22.2477 13.4578 22.3541 13.415 22.4354 13.3774C22.529 13.3347 22.6017 13.2915 22.6551 13.2462C22.7252 13.1889 22.7714 13.1213 22.7928 13.0448C22.8107 12.9798 22.8154 12.9054 22.8056 12.8233L22.3738 8.23332Z" fill="white"/>
</svg>
