<svg width="23" height="27" viewBox="0 0 23 27" fill="none" xmlns="http://www.w3.org/2000/svg">
<path d="M22.1154 18.5209L20.5337 16.9225C20.3126 16.6994 20.1908 16.4041 20.1908 16.0914V11.2583C20.1908 7.35701 17.5651 4.0532 13.9744 2.99324C14.0068 2.83293 14.0238 2.66893 14.0238 2.50439C14.0238 1.12328 12.8909 -0.000488281 11.4985 -0.000488281C10.1062 -0.000488281 8.97325 1.12328 8.97325 2.50439C8.97325 2.67051 8.98973 2.83398 9.0211 2.99377C5.43147 4.05426 2.80624 7.35754 2.80624 11.2583V16.0914C2.80624 16.4041 2.68449 16.6994 2.46333 16.9225L0.881703 18.5209C0.00343551 19.4079 -0.241118 20.6714 0.244268 21.8184C0.729123 22.9648 1.80941 23.6772 3.06302 23.6772H7.72496C7.94931 25.5456 9.55539 26.9995 11.4985 26.9995C13.4417 26.9995 15.0478 25.5456 15.2721 23.6772H19.9341C21.1877 23.6772 22.2679 22.9648 22.7528 21.8184C23.2382 20.6714 22.9936 19.4079 22.1154 18.5209ZM10.834 2.50439C10.834 2.14105 11.1322 1.84521 11.4985 1.84521C11.8648 1.84521 12.1631 2.14105 12.1631 2.50439C12.1631 2.56135 12.1556 2.6125 12.1439 2.65996C11.9308 2.64467 11.7154 2.63623 11.4985 2.63623C11.2816 2.63623 11.0663 2.64467 10.8531 2.65996C10.8414 2.61303 10.834 2.56135 10.834 2.50439ZM11.4985 25.1538C10.5841 25.1538 9.8159 24.5231 9.61175 23.6772H13.3853C13.1812 24.5231 12.413 25.1538 11.4985 25.1538ZM21.0372 21.1043C20.9649 21.2752 20.672 21.8315 19.9341 21.8315H3.06302C2.3251 21.8315 2.03217 21.2747 1.95987 21.1043C1.88756 20.9335 1.69245 20.3365 2.20921 19.8139L3.79136 18.2155C4.35596 17.645 4.66697 16.8909 4.66697 16.0914V11.2583C4.66697 7.52207 7.73134 4.48193 11.4985 4.48193C15.2657 4.48193 18.3301 7.52207 18.3301 11.2583V16.0914C18.3301 16.8909 18.6411 17.645 19.2057 18.2155L20.7879 19.8139C21.3046 20.336 21.1095 20.9335 21.0372 21.1043Z" fill="#333333"/>
</svg>
