<svg width="135" height="25" viewBox="0 0 135 25" fill="none" xmlns="http://www.w3.org/2000/svg">
<path d="M39.8886 23.4644C39.8886 24.2729 39.2339 24.9275 38.4255 24.9275H1.91009C1.10215 24.9275 0.447266 24.2729 0.447266 23.4644V1.52018C0.447266 0.712241 1.10215 0.0571289 1.91009 0.0571289H38.4255C39.234 0.0571289 39.8887 0.712241 39.8887 1.52018L39.8886 23.4644Z" fill="#21246E"/>
<path d="M15.4383 7.25827L11.0498 17.7301H8.18547L6.02743 9.37389C5.89454 8.85852 5.78098 8.67105 5.38263 8.45224C4.73014 8.09939 3.65674 7.76841 2.70898 7.56231L2.77527 7.25835H7.38362C7.97136 7.25835 8.49975 7.65038 8.63264 8.32621L9.77371 14.3871L12.5922 7.25835L15.4383 7.25827ZM26.658 14.3095C26.6707 11.5473 22.8358 11.3969 22.8633 10.1611C22.8708 9.78394 23.2283 9.38475 24.0113 9.28397C24.4001 9.23223 25.4702 9.19435 26.6829 9.75107L27.1583 7.53151C26.5058 7.29469 25.667 7.06787 24.6246 7.06787C21.9472 7.06787 20.0623 8.49197 20.0465 10.5296C20.0289 12.0365 21.3912 12.8773 22.4188 13.3791C23.4739 13.8926 23.8267 14.2204 23.823 14.6809C23.8161 15.3838 22.9811 15.691 22.2024 15.7047C20.8401 15.726 20.0499 15.3366 19.4189 15.0427L18.9285 17.3386C19.5605 17.6288 20.7308 17.8808 21.9419 17.8957C24.7874 17.8956 26.649 16.4867 26.658 14.3095ZM33.7283 17.7301H36.2344L34.0477 7.25819H31.7342C31.2143 7.25819 30.7761 7.56138 30.5809 8.02579L26.5184 17.73H29.3618L29.9262 16.1661H33.402L33.7283 17.7301ZM30.7055 14.0199L32.132 10.0879L32.9526 14.0199H30.7055ZM19.3096 7.25827L17.0683 17.7301H14.3588L16.6007 7.25819H19.3096V7.25827Z" fill="white"/>
<path d="M88.9159 23.4644C88.9159 24.2729 88.2613 24.9275 87.4528 24.9275H50.9374C50.1295 24.9275 49.4746 24.2729 49.4746 23.4644V1.52018C49.4746 0.712241 50.1295 0.0571289 50.9374 0.0571289H87.4529C88.2614 0.0571289 88.916 0.712241 88.916 1.52018L88.9159 23.4644Z" fill="#E2DED2"/>
<path d="M64.5632 20.2137C60.3056 20.2137 56.8418 16.7499 56.8418 12.4923C56.8418 8.2348 60.3056 4.771 64.5632 4.771C68.8207 4.771 72.2845 8.2348 72.2845 12.4923C72.2845 16.7499 68.8207 20.2137 64.5632 20.2137Z" fill="#EE2C3C"/>
<path d="M73.8268 4.771C71.3143 4.771 69.0998 5.9956 67.6899 7.85954H70.6997C71.0626 8.33826 71.3853 8.84787 71.6293 9.40381H66.7618C66.5456 9.89489 66.3726 10.4091 66.263 10.9481H72.1281C72.2285 11.4469 72.2826 11.9642 72.2826 12.4923H66.1055C66.1055 13.0205 66.1595 13.5378 66.2614 14.0366H72.1266C72.0169 14.5756 71.844 15.0898 71.6278 15.5809H66.7602C67.0042 16.1368 67.327 16.6464 67.6899 17.1252H70.6997C70.2688 17.695 69.7623 18.1984 69.194 18.6293C70.4881 19.6099 72.0818 20.2137 73.8268 20.2137C78.0844 20.2137 81.5482 16.7499 81.5482 12.4923C81.5482 8.2348 78.0844 4.771 73.8268 4.771Z" fill="#F99D3C"/>
<path d="M135 22.8091C135 23.9872 134.045 24.9422 132.867 24.9422H101.049C99.871 24.9422 98.916 23.9872 98.916 22.8091V2.19017C98.916 1.01216 99.871 0.0571289 101.049 0.0571289H132.867C134.045 0.0571289 135 1.01216 135 2.19017V22.8091Z" fill="#306FC5"/>
<path d="M104.176 10.0152H105.254L104.715 8.64307L104.176 10.0152Z" fill="white"/>
<path d="M109.91 14.6216V15.2588H111.723V15.945H109.91V16.6803H111.919L112.85 15.6509L111.968 14.6216H109.91Z" fill="white"/>
<path d="M124.073 8.64307L123.484 10.0152H124.612L124.073 8.64307Z" fill="white"/>
<path d="M115.151 17.0721V14.2788L113.877 15.6511L115.151 17.0721Z" fill="white"/>
<path d="M117.555 15.0628C117.506 14.7688 117.309 14.6216 117.015 14.6216H115.986V15.5037H117.065C117.359 15.5037 117.555 15.3568 117.555 15.0628Z" fill="white"/>
<path d="M120.983 15.406C121.081 15.3569 121.131 15.2098 121.131 15.063C121.18 14.8672 121.081 14.769 120.983 14.72C120.886 14.6709 120.738 14.6709 120.592 14.6709H119.611V15.4551H120.592C120.738 15.4551 120.886 15.4551 120.983 15.406Z" fill="white"/>
<path d="M128.04 7.36914V7.9572L127.746 7.36914H125.443V7.9572L125.149 7.36914H122.013C121.474 7.36914 121.032 7.46724 120.641 7.66324V7.36914H118.435V7.41819V7.66324C118.19 7.46731 117.896 7.36914 117.504 7.36914H109.615L109.075 8.5943L108.536 7.36914H106.772H106.037V7.9572L105.792 7.36914H105.743H103.636L102.656 9.67231L101.529 12.1716L101.508 12.2207H101.529H104.028H104.059L104.077 12.1716L104.371 11.4366H105.008L105.302 12.2207H108.144V12.1716V11.6326L108.389 12.2206H109.81L110.055 11.6326V12.1716V12.2207H111.182H116.818H116.867V10.9465H116.965C117.063 10.9465 117.063 10.9465 117.063 11.0935V12.1716H120.592V11.8776C120.886 12.0248 121.326 12.1716 121.915 12.1716H123.385L123.679 11.3877H124.365L124.659 12.1716H127.501V11.6817V11.4367L127.942 12.1716H128.04H128.089H130.245V7.36914H128.04H128.04ZM111.428 11.4857H110.937H110.643V11.1919V8.79037L110.594 8.90278V8.90144L109.454 11.4857H109.418H109.156H108.732L107.556 8.79037V11.4857H105.89L105.547 10.7507H103.881L103.538 11.4857H102.676L104.126 8.0553H105.351L106.723 11.3386V8.0553H107.017H108.021L108.044 8.10442H108.046L108.664 9.4501L109.108 10.4583L109.124 10.4075L110.104 8.05537H111.428V11.4857H111.428ZM114.809 8.79037H112.898V9.42741H114.76V10.1134H112.898V10.7997H114.809V11.5346H112.065V8.05537H114.809V8.79037ZM118.304 10.054C118.306 10.0551 118.307 10.0559 118.309 10.057C118.327 10.0766 118.343 10.0962 118.357 10.115C118.451 10.2381 118.526 10.4211 118.53 10.6895C118.531 10.6942 118.531 10.6987 118.531 10.7034C118.531 10.7061 118.532 10.7084 118.532 10.7111C118.532 10.7127 118.531 10.7139 118.531 10.7154C118.533 10.7424 118.533 10.7699 118.533 10.7997V11.4858H117.798V11.0936C117.798 10.8976 117.798 10.6035 117.651 10.4075C117.605 10.3612 117.558 10.3307 117.507 10.309C117.433 10.2614 117.294 10.2607 117.063 10.2607H116.181V11.4858H115.348V8.05537H117.21C117.651 8.05537 117.945 8.05537 118.19 8.20238C118.43 8.34658 118.576 8.58571 118.581 8.96438C118.57 9.4859 118.235 9.77204 117.994 9.86852C117.994 9.86852 118.158 9.90143 118.304 10.054ZM119.955 11.4857H119.121V8.0553H119.955V11.4857ZM129.511 11.4857H128.432L126.864 8.88833V11.0446L126.859 11.0395V11.4879H126.031V11.4858H125.198L124.904 10.7507H123.189L122.895 11.5347H121.964C121.572 11.5347 121.081 11.4368 120.788 11.1427C120.493 10.8487 120.347 10.4566 120.347 9.81968C120.347 9.32966 120.445 8.83928 120.788 8.44736C121.032 8.15312 121.474 8.05537 122.013 8.05537H122.797V8.79037H122.013C121.719 8.79037 121.572 8.83921 121.375 8.98651C121.229 9.13345 121.131 9.42741 121.131 9.77042C121.131 10.1625 121.18 10.4075 121.375 10.6035C121.523 10.7507 121.719 10.7998 121.964 10.7998H122.307L123.434 8.10456H123.924H124.659L126.031 11.3879V11.2204V10.1136V10.0157V8.10463H127.256L128.677 10.5058V8.10463H129.51V11.4859H129.511V11.4857Z" fill="white"/>
<path d="M117.604 9.48423C117.619 9.46893 117.632 9.4516 117.643 9.43172C117.687 9.36146 117.738 9.23488 117.711 9.06214C117.709 9.04629 117.707 9.03163 117.703 9.01746C117.702 9.01352 117.702 9.01006 117.701 9.00612L117.701 9.00619C117.676 8.92225 117.614 8.87066 117.552 8.83937C117.454 8.79053 117.307 8.79053 117.16 8.79053H116.18V9.57472H117.16C117.307 9.57472 117.454 9.57472 117.552 9.5256C117.567 9.51813 117.58 9.50798 117.593 9.49649L117.593 9.49713C117.593 9.49713 117.598 9.49184 117.604 9.48423Z" fill="white"/>
<path d="M132.401 16.3867C132.401 16.0437 132.303 15.7005 132.156 15.4555V13.2504H132.154V13.1032C132.154 13.1032 130.1 13.1032 129.794 13.1032C129.489 13.1032 129.118 13.3971 129.118 13.3971V13.1032H126.864C126.521 13.1032 126.08 13.2013 125.884 13.3971V13.1032H121.865V13.2504V13.3971C121.571 13.1522 121.032 13.1031 120.787 13.1031H118.141V13.2503V13.397C117.896 13.1521 117.307 13.103 117.013 13.103H114.073L113.387 13.8382L112.75 13.103H112.545H112.211H108.34V13.2503V13.6374V18.0528H112.652L113.361 17.344L113.975 18.0528H114.024H116.509H116.622H116.671H116.72V17.5628V16.9257H116.965C117.307 16.9257 117.749 16.9257 118.092 16.7785V18.0035V18.1018H120.297V18.0035V16.8276H120.395C120.542 16.8276 120.542 16.8276 120.542 16.9746V18.0035V18.1018H127.206C127.648 18.1018 128.089 18.0035 128.334 17.8075V18.0035V18.1018H130.441C130.882 18.1018 131.323 18.0528 131.617 17.8567C132.068 17.586 132.353 17.1068 132.395 16.5353C132.397 16.5184 132.399 16.5015 132.401 16.4845L132.398 16.4817C132.4 16.45 132.401 16.4187 132.401 16.3867ZM116.965 16.0927H115.985V16.2394V16.5335V16.8276V17.3667H114.374L113.436 16.2885L113.433 16.2921L113.387 16.2394L112.309 17.3667H109.173V13.9364H112.358L113.228 14.8896L113.411 15.0892L113.436 15.0635L114.465 13.9365H117.063C117.567 13.9365 118.131 14.0609 118.345 14.5737C118.371 14.6753 118.386 14.7882 118.386 14.9165C118.386 15.8965 117.7 16.0927 116.965 16.0927ZM121.865 16.0436C121.963 16.1903 122.012 16.3866 122.012 16.6808V17.3666H121.179V16.9257C121.179 16.7294 121.179 16.3866 121.032 16.2394C120.934 16.0927 120.738 16.0927 120.444 16.0927H119.562V17.3667H118.729V13.8874H120.591C120.983 13.8874 121.326 13.8874 121.571 14.0342C121.816 14.1814 122.012 14.4264 122.012 14.8185C122.012 15.3574 121.669 15.6515 121.424 15.7496C121.669 15.8472 121.816 15.9456 121.865 16.0436ZM125.247 14.6221H123.335V15.2593H125.198V15.9455H123.335V16.6316H125.247V17.3666H122.502V13.8873H125.247V14.6221ZM127.305 17.3667H125.737V16.6317H127.305C127.452 16.6317 127.55 16.6317 127.648 16.5336C127.697 16.4845 127.746 16.3867 127.746 16.2886C127.746 16.1903 127.697 16.0928 127.648 16.0437C127.599 15.9947 127.501 15.9456 127.354 15.9456C126.57 15.8966 125.639 15.9456 125.639 14.8676C125.639 14.3775 125.933 13.8384 126.815 13.8384H128.432V14.6713H126.913C126.766 14.6713 126.668 14.6713 126.57 14.7204C126.472 14.7695 126.472 14.8676 126.472 14.9655C126.472 15.1126 126.57 15.1616 126.668 15.2103C126.766 15.2594 126.864 15.2594 126.962 15.2594H127.403C127.844 15.2594 128.138 15.3574 128.334 15.5535C128.481 15.7006 128.579 15.9456 128.579 16.2886C128.579 17.0234 128.138 17.3667 127.305 17.3667ZM131.519 17.0234C131.323 17.2197 130.98 17.3667 130.49 17.3667H128.922V16.6317H130.49C130.637 16.6317 130.735 16.6317 130.833 16.5336C130.882 16.4845 130.931 16.3867 130.931 16.2886C130.931 16.1903 130.882 16.0928 130.833 16.0437C130.784 15.9947 130.686 15.9456 130.539 15.9456C129.755 15.8966 128.824 15.9456 128.824 14.8677C128.824 14.4019 129.09 13.9812 129.748 13.8562C129.826 13.8454 129.909 13.8384 130 13.8384H131.617V14.6713H130.539H130.147H130.098C129.951 14.6713 129.853 14.6713 129.755 14.7204C129.706 14.7695 129.657 14.8676 129.657 14.9655C129.657 15.1126 129.706 15.1616 129.853 15.2103C129.951 15.2594 130.049 15.2594 130.147 15.2594H130.196H130.588C130.802 15.2594 130.964 15.2858 131.112 15.3379C131.248 15.387 131.698 15.588 131.798 16.1127C131.807 16.1677 131.813 16.2251 131.813 16.2886C131.813 16.5827 131.715 16.8276 131.519 17.0234Z" fill="white"/>
</svg>
