<svg width="29" height="29" viewBox="0 0 29 29" fill="none" xmlns="http://www.w3.org/2000/svg">
<path d="M14.6416 25.8609C14.6668 25.8609 14.6913 25.8594 14.7164 25.8594H14.5669C14.592 25.8594 14.6165 25.8609 14.6416 25.8609Z" fill="black"/>
<path d="M18.6033 15.9517H10.6791C8.00024 16.1966 5.79214 18.0596 5.03528 20.5547C7.03767 23.7207 10.5582 25.8336 14.5671 25.8597H14.7165C18.7254 25.8336 22.2456 23.7207 24.248 20.5547C23.4908 18.0596 21.2821 16.1963 18.6033 15.9517Z" fill="black"/>
<path d="M14.6415 14.971C17.7557 14.971 20.2803 12.4464 20.2803 9.33216C20.2803 6.21793 17.7557 3.69336 14.6415 3.69336C11.5273 3.69336 9.00269 6.21793 9.00269 9.33216C9.00269 12.4464 11.5273 14.971 14.6415 14.971Z" fill="black"/>
<path d="M14.6416 0.367676C6.84935 0.367676 0.509277 6.70744 0.509277 14.5C0.509277 22.2922 6.84935 28.6323 14.6416 28.6323C22.4345 28.6323 28.7739 22.2922 28.7739 14.5C28.7739 6.70744 22.4345 0.367676 14.6416 0.367676ZM14.6416 26.9697C7.75508 26.9697 2.17187 21.3872 2.17187 14.5C2.17187 7.61285 7.75508 2.02995 14.6416 2.02995C21.5288 2.02995 27.1113 7.61253 27.1113 14.5C27.1113 21.3872 21.5288 26.9697 14.6416 26.9697Z" fill="black"/>
</svg>
