<svg width="17" height="14" viewBox="0 0 17 14" fill="none" xmlns="http://www.w3.org/2000/svg">
<path d="M0.708334 6.29771H14.8392L9.42827 1.20458C9.14494 0.937879 9.13396 0.494784 9.40383 0.214788C9.67335 -0.0648589 10.1217 -0.0760589 10.4054 0.190638L16.5849 6.00757C16.8523 6.27216 17 6.62356 17 6.9977C17 7.3715 16.8523 7.72325 16.5725 7.99939L10.4051 13.8044C10.268 13.9336 10.0923 13.9976 9.91667 13.9976C9.72967 13.9976 9.54267 13.9248 9.40348 13.7803C9.1336 13.5003 9.14458 13.0575 9.42792 12.7908L14.8615 7.6977H0.708334C0.317333 7.6977 0 7.3841 0 6.9977C0 6.61131 0.317333 6.29771 0.708334 6.29771Z" fill="#1597C5"/>
</svg>
