<svg width="30" height="30" viewBox="0 0 30 30" fill="none" xmlns="http://www.w3.org/2000/svg">
<g clip-path="url(#clip0_694_1243)">
<path d="M29.7153 28.3679L21.9698 20.7461C23.9981 18.5424 25.2444 15.628 25.2444 12.421C25.2434 5.56064 19.5927 0 12.6217 0C5.65069 0 0 5.56064 0 12.421C0 19.2814 5.65069 24.842 12.6217 24.842C15.6337 24.842 18.3962 23.8002 20.5661 22.0683L28.3416 29.7201C28.7205 30.0933 29.3356 30.0933 29.7145 29.7201C30.0942 29.3469 30.0942 28.7411 29.7153 28.3679ZM12.6217 22.931C6.72347 22.931 1.94203 18.2255 1.94203 12.421C1.94203 6.61651 6.72347 1.91105 12.6217 1.91105C18.52 1.91105 23.3014 6.61651 23.3014 12.421C23.3014 18.2255 18.52 22.931 12.6217 22.931Z" fill="#333333"/>
</g>
<defs>
<clipPath id="clip0_694_1243">
<rect width="30" height="30" fill="white"/>
</clipPath>
</defs>
</svg>
