<svg width="78" height="79" viewBox="0 0 78 79" fill="none" xmlns="http://www.w3.org/2000/svg">
<path d="M56.1952 45.0029H54.8138C53.3966 45.0029 52.1111 45.5677 51.1868 46.5044C50.2501 47.4412 49.6853 48.7267 49.6853 50.1314C49.6853 52.9543 51.9793 55.2599 54.8138 55.2599H50.6697C49.2407 55.2599 47.9553 55.8488 47.0185 56.7731C46.0934 57.7099 45.5053 58.9954 45.5053 60.4243C45.5053 63.2705 47.8235 65.5653 50.6697 65.5653H51.8592C50.3936 65.5653 49.0723 66.1659 48.1121 67.1144C47.1511 68.087 46.563 69.4084 46.563 70.8615C46.563 73.7803 48.9412 76.1585 51.86 76.1585H38.6951C35.8364 76.1585 33.1821 75.0056 30.9724 73.2522C29.903 72.3997 28.6901 71.6906 27.3812 71.246C26.024 70.7539 24.5943 70.5136 23.117 70.5136H20.4268V35.923C22.5889 35.923 24.6785 35.4784 26.6005 34.6141C28.5224 33.7616 30.2758 32.4878 31.7048 30.9029C31.7048 30.9029 37.1936 25.57 38.419 23.3603C39.4042 21.5226 40.2208 19.2044 40.8214 16.5259C41.6022 13.3427 42.0944 9.70326 42.3705 5.98032C42.4189 5.28378 42.6591 4.68318 43.0312 4.14264C44.1364 2.62944 46.3345 2.0889 48.0637 3.32598C52.0394 6.10044 54.3934 10.6767 54.3934 15.5533C55.4987 22.6154 54.5018 28.729 51.5105 33.9784V33.9901C51.3545 34.2421 51.2102 34.4948 51.0542 34.7467H56.1952C54.7897 34.7467 53.505 35.3114 52.5682 36.2482C51.6314 37.1733 51.0667 38.458 51.0667 39.8752C51.0659 42.709 53.3607 45.0029 56.1952 45.0029Z" fill="#FACB00"/>
<path d="M16.3526 32.2383H6.00274C4.05274 32.2383 2.47168 33.8193 2.47168 35.7693V73.5791C2.47168 75.5291 4.05274 77.1101 6.00274 77.1101H16.3526C18.6005 77.1101 20.4218 75.288 20.4218 73.0409V36.3075C20.4218 34.0596 18.5997 32.2383 16.3526 32.2383Z" fill="#304C58"/>
<path opacity="0.1" d="M20.4258 36.3077V73.0371C20.4258 75.2859 18.603 77.1087 16.3542 77.1087H6.00127C4.05127 77.1087 2.47021 75.5277 2.47021 73.5777C5.73686 72.7969 8.65562 71.1277 10.9496 68.8212C14.2045 65.578 16.2107 61.0985 16.2107 56.1377V33.2805C16.2107 32.9202 16.1623 32.5723 16.0664 32.2354H16.355C18.603 32.2361 20.4258 34.059 20.4258 36.3077Z" fill="black"/>
<path d="M66.4216 70.863C66.4216 73.7849 64.0535 76.1537 61.1332 76.1537H51.8543C48.9332 76.1537 46.5659 73.7849 46.5659 70.863C46.5659 67.9411 48.934 65.5723 51.8543 65.5723H61.1332C64.0543 65.5723 66.4216 67.9411 66.4216 70.863Z" fill="#FACB00"/>
<path d="M70.1034 60.4152C70.1034 63.2637 67.7953 65.5725 64.9483 65.5725H50.6619C47.8149 65.5725 45.5068 63.2637 45.5068 60.4152C45.5068 57.5666 47.8149 55.2578 50.6619 55.2578H64.9483C67.7953 55.2578 70.1034 57.5666 70.1034 60.4152Z" fill="#FACB00"/>
<path d="M74.1477 50.1271C74.1477 52.9609 71.8522 55.2572 69.02 55.2572H54.8084C51.9762 55.2572 49.6807 52.9601 49.6807 50.1271C49.6807 47.2934 51.9762 44.9971 54.8084 44.9971H69.02C71.8522 44.9971 74.1477 47.2942 74.1477 50.1271Z" fill="#FACB00"/>
<path opacity="0.1" d="M56.1948 45.0025H54.8135C53.3962 45.0025 52.1108 45.5672 51.1865 46.504C50.2497 47.4407 49.685 48.7262 49.685 50.131C49.685 52.9538 51.9789 55.2595 54.8135 55.2595H50.6693C49.2404 55.2595 47.9549 55.8484 47.0181 56.7727C46.0931 57.7094 45.5049 58.9949 45.5049 60.4238C45.5049 63.2701 47.8231 65.5648 50.6693 65.5648H51.8588C50.3932 65.5648 49.0719 66.1654 48.1117 67.1139C47.1507 68.0866 46.5626 69.4079 46.5626 70.861C46.5626 73.7798 48.9408 76.158 51.8596 76.158H46.2865C44.9652 74.7766 44.1602 72.9148 44.1602 70.861C44.1602 69.0951 44.7608 67.4618 45.7694 66.1763C44.136 64.7833 43.1025 62.717 43.1025 60.4114C43.1025 57.1681 45.1446 54.4061 48.015 53.3368C47.5345 52.3641 47.2826 51.283 47.2826 50.1302C47.2826 47.7637 48.3753 45.6382 50.0929 44.2685C49.192 43.0314 48.6639 41.5057 48.6639 39.8607C48.6639 37.4825 49.7809 35.3562 51.5102 33.9873C51.3542 34.2392 51.2099 34.492 51.0539 34.7439H56.1948C54.7893 34.7439 53.5046 35.3086 52.5678 36.2454C51.6311 37.1705 51.0663 38.4551 51.0663 39.8724C51.0656 42.7085 53.3603 45.0025 56.1948 45.0025Z" fill="black"/>
<path d="M75.5305 39.8674C75.5305 42.7011 73.235 44.9974 70.4028 44.9974H56.1912C53.359 44.9974 51.0635 42.7003 51.0635 39.8674C51.0635 37.0336 53.359 34.7373 56.1912 34.7373H70.4028C73.2342 34.7365 75.5305 37.0336 75.5305 39.8674Z" fill="#FACB00"/>
</svg>
