<svg width="27" height="27" viewBox="0 0 27 27" fill="none" xmlns="http://www.w3.org/2000/svg">
<path d="M26.5944 17.0152C26.49 17.3858 26.2433 17.7001 25.9081 17.8895L23.5825 19.1892V21.8459C23.5818 22.2292 23.4292 22.5966 23.1581 22.8676C22.8871 23.1387 22.5197 23.2913 22.1363 23.292H19.4719L18.1791 25.6177C17.9908 25.9524 17.6776 26.199 17.308 26.3032C16.9383 26.4075 16.5424 26.361 16.207 26.1739L13.65 24.7434L11.093 26.1783C10.7575 26.3653 10.3616 26.4119 9.99198 26.3075C9.62234 26.2033 9.3091 25.9567 9.1209 25.622L7.82811 23.2963H5.16281C4.77896 23.2951 4.41131 23.1418 4.14053 22.8699C3.86976 22.5979 3.71786 22.2296 3.71838 21.8459V19.1892L1.39274 17.8895C1.05791 17.7012 0.811373 17.388 0.707101 17.0183C0.602828 16.6487 0.649332 16.2528 0.836423 15.9174L2.26702 13.3604L0.836423 10.8025C0.650077 10.467 0.603981 10.0715 0.708201 9.70218C0.812413 9.33288 1.05849 9.01982 1.39274 8.83127L3.71838 7.53155V4.87231C3.71951 4.48959 3.87201 4.1228 4.1427 3.8522C4.4133 3.58154 4.78008 3.42899 5.16281 3.42785H7.82811L9.1209 1.10221C9.3091 0.767417 9.62234 0.520876 9.99198 0.416604C10.3616 0.312331 10.7575 0.358835 11.093 0.545926L13.65 1.97649L16.207 0.545926C16.5424 0.358835 16.9383 0.312331 17.308 0.416604C17.6776 0.520876 17.9908 0.767417 18.1791 1.10221L19.4719 3.42785H22.1363C22.5191 3.42899 22.8858 3.58154 23.1565 3.8522C23.4271 4.1228 23.5796 4.48959 23.5808 4.87231V7.53068L25.9064 8.83041C26.2408 9.01895 26.487 9.33219 26.5913 9.70166C26.6955 10.0712 26.6493 10.4669 26.4627 10.8025L25.0321 13.3595L26.4688 15.9174C26.6545 16.252 26.7012 16.6463 26.5987 17.0152H26.5944Z" fill="#22996C"/>
<path d="M12.204 17.6907C12.1092 17.6908 12.0154 17.6722 11.9278 17.6359C11.8402 17.5996 11.7606 17.5464 11.6937 17.4793L8.08215 13.8678C7.95287 13.7311 7.88199 13.5493 7.88459 13.3612C7.88719 13.173 7.96309 12.9933 8.09619 12.8602C8.22919 12.7272 8.40899 12.6512 8.5971 12.6486C8.7853 12.646 8.96709 12.7169 9.10373 12.8462L12.204 15.95L18.9167 9.23733C19.0534 9.10796 19.2352 9.03708 19.4233 9.03968C19.6115 9.04228 19.7912 9.11818 19.9243 9.25128C20.0574 9.38437 20.1333 9.56408 20.1359 9.75228C20.1385 9.94039 20.0676 10.1222 19.9382 10.2589L12.7152 17.4819C12.648 17.5486 12.5682 17.6014 12.4804 17.6373C12.3927 17.6731 12.2988 17.6913 12.204 17.6907Z" fill="white"/>
</svg>
