<svg width="84" height="85" viewBox="0 0 84 85" fill="none" xmlns="http://www.w3.org/2000/svg">
<circle cx="42" cy="42.4248" r="41" fill="black" fill-opacity="0.4" stroke="white" stroke-width="2"/>
<g clip-path="url(#clip0_576_1245)">
<path fill-rule="evenodd" clip-rule="evenodd" d="M54.8843 41.1537L30.5833 27.1232C30.361 26.9938 30.1086 26.9252 29.8515 26.9243H29.8472C29.5899 26.9253 29.3374 26.994 29.115 27.1233C28.891 27.2511 28.705 27.4361 28.5761 27.6595C28.4473 27.8828 28.3802 28.1365 28.3817 28.3943V56.4551C28.3807 56.7132 28.4479 56.9669 28.5765 57.1906C28.705 57.4143 28.8904 57.6001 29.1139 57.7291C29.3373 57.8581 29.5909 57.9258 29.8489 57.9253C30.107 57.9248 30.3603 57.8561 30.5832 57.7263L54.8843 43.6957C55.1074 43.5669 55.2927 43.3816 55.4215 43.1585C55.5504 42.9354 55.6182 42.6823 55.6182 42.4247C55.6182 42.1671 55.5504 41.914 55.4215 41.6909C55.2927 41.4678 55.1074 41.2825 54.8843 41.1537Z" fill="white"/>
</g>
<defs>
<clipPath id="clip0_576_1245">
<rect width="31" height="31" fill="white" transform="translate(26.5 26.9248)"/>
</clipPath>
</defs>
</svg>
